<svg id="art" style="/*border: 10px solid black; padding: 30px;*/ background-color: white" width="500" height="500" viewBox="0 0 100 100" xmlns="http://www.w3.org/2000/svg" xmlns:xlink="http://www.w3.org/1999/xlink">
  <g><rect x="0" y="0" width="20" height="20" fill="orange"/>
    <g transform="translate(20, 0)">         
            <g><rect x="0" y="0" width="20" height="20" fill="hotPink"/>
    <g transform="translate(20, 0)">         
            <g><rect x="0" y="0" width="20" height="20" fill="orange"/>
    <g transform="translate(20, 0)">         
            <g><rect x="0" y="0" width="20" height="20" fill="hotPink"/>
    <g transform="translate(20, 0)">         
            <rect x="0" y="0" width="20" height="20" fill="orange"/>
          </g></g>
          </g></g>
          </g></g>
          </g>
    <g transform="translate(0, 20)">
            <g><rect x="0" y="0" width="20" height="20" fill="hotPink"/>
    <g transform="translate(20, 0)">         
            <g><rect x="0" y="0" width="20" height="20" fill="orange"/>
    <g transform="translate(20, 0)">         
            <g><rect x="0" y="0" width="20" height="20" fill="hotPink"/>
    <g transform="translate(20, 0)">         
            <g><rect x="0" y="0" width="20" height="20" fill="orange"/>
    <g transform="translate(20, 0)">         
            <rect x="0" y="0" width="20" height="20" fill="hotPink"/>
          </g></g>
          </g></g>
          </g></g>
          </g>
    <g transform="translate(0, 20)">
            <g><rect x="0" y="0" width="20" height="20" fill="orange"/>
    <g transform="translate(20, 0)">         
            <g><rect x="0" y="0" width="20" height="20" fill="hotPink"/>
    <g transform="translate(20, 0)">         
            <g><rect x="0" y="0" width="20" height="20" fill="orange"/>
    <g transform="translate(20, 0)">         
            <g><rect x="0" y="0" width="20" height="20" fill="hotPink"/>
    <g transform="translate(20, 0)">         
            <rect x="0" y="0" width="20" height="20" fill="orange"/>
          </g></g>
          </g></g>
          </g></g>
          </g>
    <g transform="translate(0, 20)">
            <g><rect x="0" y="0" width="20" height="20" fill="hotPink"/>
    <g transform="translate(20, 0)">         
            <g><rect x="0" y="0" width="20" height="20" fill="orange"/>
    <g transform="translate(20, 0)">         
            <g><rect x="0" y="0" width="20" height="20" fill="hotPink"/>
    <g transform="translate(20, 0)">         
            <g><rect x="0" y="0" width="20" height="20" fill="orange"/>
    <g transform="translate(20, 0)">         
            <rect x="0" y="0" width="20" height="20" fill="hotPink"/>
          </g></g>
          </g></g>
          </g></g>
          </g>
    <g transform="translate(0, 20)">
            <g><rect x="0" y="0" width="20" height="20" fill="orange"/>
    <g transform="translate(20, 0)">         
            <g><rect x="0" y="0" width="20" height="20" fill="hotPink"/>
    <g transform="translate(20, 0)">         
            <g><rect x="0" y="0" width="20" height="20" fill="orange"/>
    <g transform="translate(20, 0)">         
            <g><rect x="0" y="0" width="20" height="20" fill="hotPink"/>
    <g transform="translate(20, 0)">         
            <rect x="0" y="0" width="20" height="20" fill="orange"/>
          </g></g>
          </g></g>
          </g></g>
          </g></g>
          </g></g>
          </g></g>
          </g></g>
          </g></g>
</svg>