<svg version="1.1" viewBox="0.0 0.0 960.0 540.0" fill="none" stroke="none" stroke-linecap="square"
    stroke-miterlimit="10" xmlns:xlink="http://www.w3.org/1999/xlink" xmlns="http://www.w3.org/2000/svg">
    <clipPath id="gaf2513e1ad_0_4.0">
        <path d="m0 0l960.0 0l0 540.0l-960.0 0l0 -540.0z" clip-rule="nonzero"></path>
    </clipPath>
    <g clip-path="url(#gaf2513e1ad_0_4.0)">
        <path fill="#ffffff" d="m0 0l960.0 0l0 540.0l-960.0 0z" fill-rule="evenodd"></path>
        <path fill="#000000" d="m305.1181 177.5433l349.7638 0l0 184.91339l-349.7638 0z" fill-rule="evenodd"></path>
        <path stroke="#000000" stroke-width="1.0" stroke-linejoin="round" stroke-linecap="butt"
            d="m305.1181 177.5433l349.7638 0l0 184.91339l-349.7638 0z" fill-rule="evenodd"></path>
        <path fill="#ffffff"
            d="m454.60233 283.34l3.390625 0l0 -17.109375l7.59375 0l0 -2.609375l-7.59375 0l0 -1.390625q0 -1.234375 0.3125 -2.15625q0.328125 -0.9375 0.9375 -1.515625q0.59375 -0.578125 1.46875 -0.859375q0.890625 -0.28125 2.03125 -0.28125q1.140625 0 2.125 0.203125q1.0 0.1875 1.75 0.4375l0.390625 -2.78125q-0.46875 -0.140625 -0.921875 -0.234375q-0.453125 -0.09375 -0.921875 -0.1875q-0.6875 -0.125 -1.40625 -0.203125q-0.703125 -0.09375 -1.421875 -0.09375q-1.75 0 -3.171875 0.5q-1.421875 0.484375 -2.4375 1.453125q-1.015625 0.96875 -1.578125 2.40625q-0.546875 1.421875 -0.546875 3.3125l0 1.390625l-5.4375 0l0 2.609375l5.4375 0l0 17.109375zm20.697418 -10.765625l0 0.171875q0 2.609375 0.40625 4.90625q0.421875 2.296875 1.109375 4.25q0.671875 1.96875 1.578125 3.578125q0.90625 1.609375 1.90625 2.875q0.984375 1.265625 2.0 2.15625q1.015625 0.890625 1.921875 1.390625l0.703125 -2.0625q-0.734375 -0.59375 -1.484375 -1.453125q-0.734375 -0.84375 -1.421875 -1.9375q-0.671875 -1.140625 -1.296875 -2.59375q-0.625 -1.4375 -1.09375 -3.140625q-0.4375 -1.671875 -0.703125 -3.65625q-0.25 -2.0 -0.25 -4.265625l0 -0.265625q0 -2.359375 0.265625 -4.421875q0.28125 -2.0625 0.78125 -3.78125q0.5 -1.890625 1.265625 -3.484375q0.765625 -1.59375 1.609375 -2.78125q0.5625 -0.765625 1.15625 -1.375q0.59375 -0.625 1.171875 -1.0625l-0.703125 -2.234375q-0.90625 0.515625 -1.921875 1.40625q-1.0 0.890625 -1.984375 2.15625q-1.0 1.25 -1.90625 2.875q-0.890625 1.625 -1.59375 3.578125q-0.6875 1.96875 -1.109375 4.265625q-0.40625 2.296875 -0.40625 4.90625zm31.369263 0.171875l0 -0.171875q0 -2.796875 -0.421875 -5.03125q-0.421875 -2.234375 -1.078125 -4.140625q-0.6875 -1.984375 -1.578125 -3.5625q-0.890625 -1.59375 -1.90625 -2.890625q-0.984375 -1.265625 -2.015625 -2.15625q-1.015625 -0.890625 -1.921875 -1.40625l-0.71875 2.0625q0.609375 0.5 1.234375 1.203125q0.640625 0.703125 1.25 1.625q0.78125 1.1875 1.53125 2.78125q0.75 1.59375 1.28125 3.59375q0.359375 1.40625 0.65625 3.421875q0.296875 2.0 0.296875 4.453125l0 0.265625q0 2.15625 -0.234375 4.0625q-0.21875 1.90625 -0.640625 3.546875q-0.390625 1.765625 -1.03125 3.25q-0.625 1.484375 -1.296875 2.671875q-0.703125 1.171875 -1.5 2.0625q-0.78125 0.890625 -1.546875 1.453125l0.71875 2.0625q0.90625 -0.5 1.921875 -1.390625q1.015625 -0.890625 2.015625 -2.15625q0.984375 -1.265625 1.875 -2.875q0.90625 -1.609375 1.609375 -3.578125q0.6875 -1.953125 1.09375 -4.25q0.40625 -2.296875 0.40625 -4.90625z"
            fill-rule="nonzero"></path>
        <path fill="#93c47d"
            d="m108.637794 270.0l0 0c0 -28.0578 22.745338 -50.803146 50.803154 -50.803146l0 0c13.473831 0 26.395813 5.352463 35.92325 14.879898c9.527435 9.527435 14.879898 22.449402 14.879898 35.92325l0 0c0 28.0578 -22.745346 50.80316 -50.803146 50.80316l0 0c-28.057816 0 -50.803154 -22.745361 -50.803154 -50.80316z"
            fill-rule="evenodd"></path>
        <path fill="#674ea7" d="m749.7559 320.80316l50.80316 -101.60631l50.8031 101.60631z" fill-rule="evenodd"></path>
        <path fill="#000000" fill-opacity="0.0" d="m226.1378 270.0l63.086594 0" fill-rule="evenodd"></path>
        <path stroke="#696969" stroke-width="4.0" stroke-linejoin="round" stroke-linecap="butt"
            d="m226.1378 270.0l39.086594 0" fill-rule="evenodd"></path>
        <path fill="#696969" stroke="#696969" stroke-width="4.0" stroke-linecap="butt"
            d="m265.2244 276.60693l18.152405 -6.6069336l-18.152405 -6.6069336z" fill-rule="evenodd"></path>
        <path fill="#000000" fill-opacity="0.0" d="m670.7743 270.0l63.08661 0" fill-rule="evenodd"></path>
        <path stroke="#696969" stroke-width="4.0" stroke-linejoin="round" stroke-linecap="butt"
            d="m670.7743 270.0l39.08661 0" fill-rule="evenodd"></path>
        <path fill="#696969" stroke="#696969" stroke-width="4.0" stroke-linecap="butt"
            d="m709.8609 276.60693l18.152405 -6.6069336l-18.152405 -6.6069336z" fill-rule="evenodd"></path>
    </g>
</svg>