<svg version="1.1" viewBox="0.0 0.0 960.0 540.0" fill="none" stroke="none" stroke-linecap="square" stroke-miterlimit="10" xmlns:xlink="http://www.w3.org/1999/xlink" xmlns="http://www.w3.org/2000/svg"><clipPath id="g35ed75ccf_033.0"><path d="m0 0l960.0 0l0 540.0l-960.0 0l0 -540.0z" clip-rule="nonzero"/></clipPath><g clip-path="url(#g35ed75ccf_033.0)"><defs><radialGradient id="g35ed75ccf_033.1" gradientUnits="userSpaceOnUse" gradientTransform="matrix(23.467568856993744 0.0 0.0 23.467568856993744 0.0 0.0)" spreadMethod="pad" cx="20.453759097289346" cy="11.505239492225257" fx="20.453759097289346" fy="11.505239492225257" r="23.46756935119629"><stop offset="0.0" stop-color="#940d7f"/><stop offset="0.78" stop-color="#5e1b53"/><stop offset="1.0" stop-color="#5e1b53"/></radialGradient></defs><path fill="url(#g35ed75ccf_033.1)" d="m0 0l960.0 0l0 540.0l-960.0 0z" fill-rule="evenodd"/><g filter="url(#shadowFilter-g35ed75ccf_033.2)"><use xlink:href="#g35ed75ccf_033.2" transform="matrix(1.0 0.0 0.0 1.0 1.0 0.0)"/></g><defs><filter id="shadowFilter-g35ed75ccf_033.2" filterUnits="userSpaceOnUse"><feGaussianBlur in="SourceAlpha" stdDeviation="10.0" result="blur"/><feComponentTransfer in="blur" color-interpolation-filters="sRGB"><feFuncR type="linear" slope="0" intercept="0.22352941"/><feFuncG type="linear" slope="0" intercept="0.15294118"/><feFuncB type="linear" slope="0" intercept="0.24705882"/><feFuncA type="linear" slope="0.3" intercept="0"/></feComponentTransfer></filter></defs><g id="g35ed75ccf_033.2"><path fill="#ce0063" d="m-0.0015745406 -0.0012950131l0 539.8448l960.0 0l0 -539.8448zm728.0646 258.8896c-17.059814 91.55173 -93.90613 131.44653 -175.2503 156.11905c-65.55615 31.220795 -148.69913 106.867096 -219.63684 50.04309c-43.7041 -40.034424 -27.357666 -110.94827 -58.42206 -157.93442c-36.66284 -39.94159 -54.09497 -81.66733 -23.123627 -132.37772c17.912598 -28.474014 47.7052 -47.839607 79.296844 -59.36882c40.075043 -13.06559 82.27466 -7.246773 116.00647 -35.022522c32.24292 -10.629211 59.724792 15.222527 87.82678 26.56559c47.37964 18.77575 105.336365 1.2257538 149.07166 27.38787c41.765198 24.998276 54.218933 79.37056 44.23108 124.587875z" fill-rule="evenodd"/></g><g filter="url(#shadowFilter-g35ed75ccf_033.3)"><use xlink:href="#g35ed75ccf_033.3" transform="matrix(1.0 0.0 0.0 1.0 1.0 0.0)"/></g><defs><filter id="shadowFilter-g35ed75ccf_033.3" filterUnits="userSpaceOnUse"><feGaussianBlur in="SourceAlpha" stdDeviation="10.0" result="blur"/><feComponentTransfer in="blur" color-interpolation-filters="sRGB"><feFuncR type="linear" slope="0" intercept="0.22352941"/><feFuncG type="linear" slope="0" intercept="0.15294118"/><feFuncB type="linear" slope="0" intercept="0.24705882"/><feFuncA type="linear" slope="0.3" intercept="0"/></feComponentTransfer></filter></defs><g id="g35ed75ccf_033.3"><path fill="#ed2b2b" d="m-0.0015745406 -0.0012950131l0 539.8448l960.0 0l0 -539.8448zm691.6963 388.5052c-41.61023 23.61731 -91.796936 26.612122 -135.7337 45.527466c-27.218262 11.731201 -51.4429 29.29654 -76.986115 44.31732c-46.433624 31.376007 -126.35101 46.846558 -156.99661 -11.855194c-16.067017 -33.889587 0.8685913 -77.75693 -18.858673 -109.644806c-12.500061 -20.172272 -36.33731 -29.824005 -54.66873 -45.0c-54.281097 -42.734406 -50.667633 -133.30865 6.932358 -171.51212c27.202682 -18.961891 61.244644 -24.300003 92.92937 -34.13787c115.40149 -33.765594 74.56653 -85.68614 163.92874 -30.413864c48.946045 22.2052 104.59204 18.093071 154.84088 34.401733c121.062256 39.53788 136.94336 218.20346 24.612488 278.31732z" fill-rule="evenodd"/></g><g filter="url(#shadowFilter-g35ed75ccf_033.4)"><use xlink:href="#g35ed75ccf_033.4" transform="matrix(1.0 0.0 0.0 1.0 1.0 0.0)"/></g><defs><filter id="shadowFilter-g35ed75ccf_033.4" filterUnits="userSpaceOnUse"><feGaussianBlur in="SourceAlpha" stdDeviation="10.0" result="blur"/><feComponentTransfer in="blur" color-interpolation-filters="sRGB"><feFuncR type="linear" slope="0" intercept="0.22352941"/><feFuncG type="linear" slope="0" intercept="0.15294118"/><feFuncB type="linear" slope="0" intercept="0.24705882"/><feFuncA type="linear" slope="0.3" intercept="0"/></feComponentTransfer></filter></defs><g id="g35ed75ccf_033.4"><path fill="#f97830" d="m-0.0015745406 -0.0012950131l0 539.8448l347.39908 0c-62.82663 -23.849976 -65.71112 -78.93613 -49.504272 -135.79135c2.4193726 -17.751709 0 -37.90866 -13.446381 -49.779205c-8.591797 -7.619049 -20.161652 -10.536377 -30.878021 -14.7569275c-50.59015 -20.017303 -83.82567 -76.90347 -76.42795 -130.84134c7.3977203 -53.93811 54.715515 -99.76038 108.8414 -105.40865c28.164124 -2.9329147 58.73221 1.8465347 82.507324 -13.5155945c29.559937 -19.117317 24.411041 -62.069054 73.201904 -64.55173c49.923065 -2.6069298 110.764496 57.78614 209.37003 65.59134c34.429565 2.7309418 66.99823 22.127716 91.8125 46.287865c97.98517 107.48811 3.5361938 290.4052 -126.61444 319.8104c-26.923462 6.8277283 -55.196167 8.674255 -81.545654 17.689606c-46.681885 15.843323 -84.16675 53.006927 -132.50809 65.34329l557.7926 0l0 -539.9225z" fill-rule="evenodd"/></g><g filter="url(#shadowFilter-g35ed75ccf_033.5)"><use xlink:href="#g35ed75ccf_033.5" transform="matrix(1.0 0.0 0.0 1.0 1.0 0.0)"/></g><defs><filter id="shadowFilter-g35ed75ccf_033.5" filterUnits="userSpaceOnUse"><feGaussianBlur in="SourceAlpha" stdDeviation="10.0" result="blur"/><feComponentTransfer in="blur" color-interpolation-filters="sRGB"><feFuncR type="linear" slope="0" intercept="0.22352941"/><feFuncG type="linear" slope="0" intercept="0.15294118"/><feFuncB type="linear" slope="0" intercept="0.24705882"/><feFuncA type="linear" slope="0.3" intercept="0"/></feComponentTransfer></filter></defs><g id="g35ed75ccf_033.5"><path fill="#ffbf31" d="m-0.0015745406 -0.0012950131l0 539.8448l334.5267 0c-94.49574 -46.318817 -40.32306 -102.41385 -66.56409 -168.51733c-12.314178 -21.723999 -37.671265 -31.422272 -58.28244 -45.40323c-57.38292 -33.532898 -73.38803 -126.496765 -21.092133 -169.92943c92.805115 -43.13788 71.868195 -16.634415 145.58197 -101.793076c38.865356 -38.280945 96.15497 -46.02425 150.20361 -41.725983c45.471954 3.615591 75.062836 39.73984 119.07712 49.127716c31.855225 6.7965355 65.416504 5.710392 95.87598 18.543072c110.11322 43.448265 126.10272 273.50693 43.269653 345.13443c-14.640198 11.855194 -32.14984 19.474243 -49.426758 26.95346c-73.884094 31.034393 -146.5434 67.32944 -224.21198 87.61038l491.04236 0l0 -539.8448z" fill-rule="evenodd"/></g><g filter="url(#shadowFilter-g35ed75ccf_033.6)"><use xlink:href="#g35ed75ccf_033.6" transform="matrix(1.0 0.0 0.0 1.0 1.0 0.0)"/></g><defs><filter id="shadowFilter-g35ed75ccf_033.6" filterUnits="userSpaceOnUse"><feGaussianBlur in="SourceAlpha" stdDeviation="10.0" result="blur"/><feComponentTransfer in="blur" color-interpolation-filters="sRGB"><feFuncR type="linear" slope="0" intercept="0.22352941"/><feFuncG type="linear" slope="0" intercept="0.15294118"/><feFuncB type="linear" slope="0" intercept="0.24705882"/><feFuncA type="linear" slope="0.3" intercept="0"/></feComponentTransfer></filter></defs><g id="g35ed75ccf_033.6"><path fill="#fefdca" d="m570.72546 -0.0012950131c126.816345 47.56039 221.29633 81.62079 252.90332 227.00174c16.67218 41.756912 36.58557 67.546524 26.737549 116.5656c-8.250732 57.1344 -58.933716 90.20172 -108.05054 111.83267l-174.49042 84.44479l392.17322 0l0 -539.8448z" fill-rule="evenodd"/></g><g filter="url(#shadowFilter-g35ed75ccf_033.7)"><use xlink:href="#g35ed75ccf_033.7" transform="matrix(1.0 0.0 0.0 1.0 1.0 0.0)"/></g><defs><filter id="shadowFilter-g35ed75ccf_033.7" filterUnits="userSpaceOnUse"><feGaussianBlur in="SourceAlpha" stdDeviation="10.0" result="blur"/><feComponentTransfer in="blur" color-interpolation-filters="sRGB"><feFuncR type="linear" slope="0" intercept="0.22352941"/><feFuncG type="linear" slope="0" intercept="0.15294118"/><feFuncB type="linear" slope="0" intercept="0.24705882"/><feFuncA type="linear" slope="0.3" intercept="0"/></feComponentTransfer></filter></defs><g id="g35ed75ccf_033.7"><path fill="#ffffff" d="m959.99835 -0.0012950131l-312.08527 0c103.55292 70.89827 227.03455 176.89653 234.32361 310.22076c-7.4595947 96.9827 -77.15668 182.03268 -159.1521 229.65521l236.91376 0z" fill-rule="evenodd"/></g><g filter="url(#shadowFilter-g35ed75ccf_033.8)"><use xlink:href="#g35ed75ccf_033.8" transform="matrix(1.0 0.0 0.0 1.0 1.0 0.0)"/></g><defs><filter id="shadowFilter-g35ed75ccf_033.8" filterUnits="userSpaceOnUse"><feGaussianBlur in="SourceAlpha" stdDeviation="10.0" result="blur"/><feComponentTransfer in="blur" color-interpolation-filters="sRGB"><feFuncR type="linear" slope="0" intercept="0.22352941"/><feFuncG type="linear" slope="0" intercept="0.15294118"/><feFuncB type="linear" slope="0" intercept="0.24705882"/><feFuncA type="linear" slope="0.3" intercept="0"/></feComponentTransfer></filter></defs><g id="g35ed75ccf_033.8"><path fill="#fefdca" d="m227.31221 529.4314c-0.63591003 -107.41019 54.715256 -123.6879 -62.26819 -194.15173c-59.38347 -45.667114 -68.239136 -139.25174 -18.610641 -195.28442c22.20874 -25.975746 53.16449 -42.594803 83.34473 -58.59307c52.621643 -26.953465 103.72348 -57.413857 157.74094 -81.403465l-387.52063 0l0 539.8448l229.98117 0c-1.1492004 -3.3982544 -2.0409393 -6.878723 -2.667389 -10.412109z" fill-rule="evenodd"/></g><g filter="url(#shadowFilter-g35ed75ccf_033.9)"><use xlink:href="#g35ed75ccf_033.9" transform="matrix(1.0 0.0 0.0 1.0 1.0 0.0)"/></g><defs><filter id="shadowFilter-g35ed75ccf_033.9" filterUnits="userSpaceOnUse"><feGaussianBlur in="SourceAlpha" stdDeviation="10.0" result="blur"/><feComponentTransfer in="blur" color-interpolation-filters="sRGB"><feFuncR type="linear" slope="0" intercept="0.22352941"/><feFuncG type="linear" slope="0" intercept="0.15294118"/><feFuncB type="linear" slope="0" intercept="0.24705882"/><feFuncA type="linear" slope="0.3" intercept="0"/></feComponentTransfer></filter></defs><g id="g35ed75ccf_033.9"><path fill="#ffffff" d="m192.30858 512.1608c-14.919449 -184.2829 -218.86133 -338.1673 45.82866 -462.6c30.040863 -10.427715 59.306 -11.48291 64.36206 -49.562122l-302.5009 0l0 539.8448l198.01747 0c-3.872589 -8.708252 -5.819046 -18.1521 -5.707321 -27.682678z" fill-rule="evenodd"/></g><g filter="url(#shadowFilter-g35ed75ccf_033.10)"><use xlink:href="#g35ed75ccf_033.10" transform="matrix(1.0 0.0 0.0 1.0 0.0 2.0)"/></g><defs><filter id="shadowFilter-g35ed75ccf_033.10" filterUnits="userSpaceOnUse"><feGaussianBlur in="SourceAlpha" stdDeviation="2.0" result="blur"/><feComponentTransfer in="blur" color-interpolation-filters="sRGB"><feFuncR type="linear" slope="0" intercept="0.22352941"/><feFuncG type="linear" slope="0" intercept="0.15294118"/><feFuncB type="linear" slope="0" intercept="0.24705882"/><feFuncA type="linear" slope="0.5" intercept="0"/></feComponentTransfer></filter></defs><g id="g35ed75ccf_033.10"><path fill="#000000" fill-opacity="0.0" d="m4.866142 542.48816l0 -542.48816l93.95276 0l0 542.48816z" fill-rule="evenodd"/><path fill="#940d7f" d="m53.35202 512.2989q0 1.859375 -1.25 3.125q-1.265625 1.25 -3.125 1.25q-1.796875 0 -3.046875 -1.25q-1.265625 -1.265625 -1.265625 -3.125q0 -1.8125305 1.265625 -3.0625305q1.25 -1.265625 3.046875 -1.265625q1.859375 0 3.125 1.265625q1.25 1.25 1.25 3.0625305zm33.546875 -3.3125305l0 6.6094055l-30.0 0l0 -6.6094055l30.0 0zm0 -52.965607l0 7.1875l-17.28125 0q-3.171875 0 -4.46875 1.53125q-1.296875 1.53125 -1.296875 4.109375q0 2.640625 1.296875 4.59375q1.296875 1.953125 4.46875 1.953125l17.28125 0l0 6.953125l-17.28125 0q-3.171875 0 -4.4375 1.71875q-1.265625 1.703125 -1.265625 4.046875q0 1.671875 0.546875 3.203125q0.53125 1.53125 1.765625 2.5q1.234375 0.953125 3.390625 0.953125l17.28125 0l0 7.203125l-30.0 0l0 -7.203125l2.28125 0q-1.4375 -1.4375 -2.0 -3.328125q-0.578125 -1.890625 -0.578125 -3.75q0 -2.765625 1.0 -5.25q0.984375 -2.484375 2.953125 -3.984375q-1.96875 -1.5625 -2.953125 -4.4375q-1.0 -2.890625 -1.0 -5.59375q0 -3.359375 1.65625 -6.171875q1.640625 -2.828125 4.546875 -4.53125q2.90625 -1.703125 6.8125 -1.703125l17.28125 0zm12.0 -12.609955l0 7.203125l-42.0 0l0 -7.203125l1.625 0q-2.046875 -3.421875 -1.828125 -7.015625q0.203125 -3.59375 2.25 -6.65625q2.03125 -3.0625 5.515625 -4.921875q3.484375 -1.859375 7.984375 -1.859375q4.078125 0 7.4375 1.828125q3.359375 1.828125 5.375 4.921875q2.0 3.09375 2.0625 6.921875q0 0.90625 -0.125 2.234375q-0.109375 1.3125 -0.4375 2.546875q-0.34375 1.21875 -0.875 2.0l13.015625 0zm-19.796875 0q1.609375 -3.484375 1.25 -6.484375q-0.359375 -3.0 -2.421875 -4.859375q-2.078125 -1.859375 -5.484375 -1.859375q-3.96875 0 -6.25 1.953125q-2.28125 1.953125 -2.578125 4.953125q-0.296875 3.0 1.6875 6.296875l13.796875 0zm7.796875 -51.663086l0 7.203125l-2.34375 0q1.4375 0.71875 2.171875 2.734375q0.71875 2.015625 0.71875 4.5625q0 2.546875 -0.6875 4.921875q-0.703125 2.359375 -2.015625 3.859375q-3.359375 3.71875 -9.96875 3.71875l-17.875 0l0 -7.1875l17.875 0q3.0625 0 4.421875 -1.828125q1.34375 -1.84375 1.34375 -4.59375q0 -1.390625 -0.59375 -2.828125q-0.609375 -1.4375 -1.859375 -2.390625q-1.265625 -0.96875 -3.3125 -0.96875l-17.875 0l0 -7.203125l30.0 0zm0 -5.9937134l-30.0 0l0 -7.140625l2.21875 0q-2.40625 -2.34375 -2.34375 -5.609375q0.0625 -3.265625 1.328125 -7.234375l6.171875 3.484375q-0.78125 2.28125 -0.46875 4.46875q0.296875 2.1875 1.3125 3.578125q1.015625 1.375 2.46875 1.3125l19.3125 0l0 7.140625zm-12.234375 -49.920593l0 21.0q2.6875 -0.234375 4.140625 -2.03125q1.4375 -1.8125 1.65625 -4.453125q0.203125 -2.640625 -0.71875 -5.421875q-0.9375 -2.796875 -2.859375 -5.015625l5.453125 -3.953125q2.765625 3.296875 3.9375 6.6875q1.171875 3.390625 1.171875 6.6875q0 7.625 -4.265625 11.4375q-4.265625 3.796875 -12.0625 3.796875q-4.4375 0 -7.734375 -1.765625q-3.296875 -1.765625 -5.09375 -5.03125q-1.8125 -3.28125 -1.75 -7.71875q0.125 -9.71875 7.625 -12.953125q2.15625 -0.90625 4.734375 -1.171875q2.578125 -0.265625 5.765625 -0.09375zm-11.40625 13.5625q0 3.65625 1.984375 5.546875q1.96875 1.890625 4.375 1.890625l0 -14.8125q-2.453125 0 -4.40625 1.890625q-1.953125 1.875 -1.953125 5.484375zm24.421875 -55.86371q0 4.328125 -1.890625 7.59375q-1.890625 3.265625 -5.28125 5.09375q-3.390625 1.828125 -7.890625 1.828125q-7.921875 0 -11.96875 -3.984375q-4.046875 -3.984375 -4.046875 -10.53125q0 -4.265625 1.796875 -7.53125q1.796875 -3.265625 5.375 -5.125q3.5625 -1.859375 8.84375 -1.859375q4.5 0 7.890625 1.859375q3.390625 1.859375 5.28125 5.125q1.890625 3.265625 1.890625 7.53125zm-6.90625 0q0 -2.453125 -1.15625 -4.15625q-1.171875 -1.71875 -3.03125 -2.59375q-1.875 -0.875 -3.96875 -0.875q-3.78125 0 -6.453125 1.953125q-2.671875 1.953125 -2.671875 5.671875q0 3.609375 2.59375 5.625q2.578125 2.0 6.53125 2.0q2.15625 0 4.015625 -0.890625q1.859375 -0.90625 3.0 -2.609375q1.140625 -1.71875 1.140625 -4.125zm6.125 -45.12433l0 7.203125l-2.34375 0q1.4375 0.71875 2.171875 2.734375q0.71875 2.015625 0.71875 4.5625q0 2.546875 -0.6875 4.921875q-0.703125 2.359375 -2.015625 3.859375q-3.359375 3.71875 -9.96875 3.71875l-17.875 0l0 -7.1875l17.875 0q3.0625 0 4.421875 -1.828125q1.34375 -1.84375 1.34375 -4.59375q0 -1.390625 -0.59375 -2.828125q-0.609375 -1.4375 -1.859375 -2.390625q-1.265625 -0.96875 -3.3125 -0.96875l-17.875 0l0 -7.203125l30.0 0zm-13.625 -9.774963l-9.71875 0l0 4.375l-6.65625 0l0 -4.375l-12.0 0l0 -7.078125l12.0 0l0 -4.6875l6.65625 0l0 4.6875l9.71875 0q2.703125 0 4.09375 -0.421875q1.375 -0.421875 1.890625 -1.171875q0.5 -0.75 0.5625 -1.671875q0.0625 -0.9375 0.0625 -1.890625l0 -1.03125l7.140625 0l0 0.90625q0 3.296875 -0.484375 5.640625q-0.484375 2.34375 -1.890625 3.84375q-1.40625 1.5 -4.140625 2.1875q-2.734375 0.6875 -7.234375 0.6875zm1.390625 -46.799316l0 21.0q2.6875 -0.234375 4.140625 -2.03125q1.4375 -1.8125 1.65625 -4.453125q0.203125 -2.640625 -0.71875 -5.421875q-0.9375 -2.796875 -2.859375 -5.015625l5.453125 -3.953125q2.765625 3.296875 3.9375 6.6875q1.171875 3.390625 1.171875 6.6875q0 7.625 -4.265625 11.4375q-4.265625 3.796875 -12.0625 3.796875q-4.4375 0 -7.734375 -1.765625q-3.296875 -1.765625 -5.09375 -5.03125q-1.8125 -3.28125 -1.75 -7.71875q0.125 -9.71875 7.625 -12.953125q2.15625 -0.90625 4.734375 -1.171875q2.578125 -0.265625 5.765625 -0.09375zm-11.40625 13.5625q0 3.65625 1.984375 5.546875q1.96875 1.890625 4.375 1.890625l0 -14.8125q-2.453125 0 -4.40625 1.890625q-1.953125 1.875 -1.953125 5.484375zm23.640625 -19.141846l-30.0 0l0 -7.140625l2.21875 0q-2.40625 -2.34375 -2.34375 -5.609375q0.0625 -3.265625 1.328125 -7.234375l6.171875 3.484375q-0.78125 2.28125 -0.46875 4.46875q0.296875 2.1875 1.3125 3.578125q1.015625 1.375 2.46875 1.3125l19.3125 0l0 7.140625zm-4.078125 -46.986267l-4.5 -4.1875q2.765625 -3.1875 2.765625 -6.546875q0 -0.953125 -0.203125 -1.765625q-0.21875 -0.8125 -0.703125 -1.359375q-0.65625 -0.71875 -1.578125 -0.828125q-0.9375 -0.125 -1.546875 0q-1.078125 0.234375 -1.703125 1.46875q-0.640625 1.21875 -1.140625 3.0q-0.515625 1.765625 -1.296875 3.625q-0.78125 1.859375 -2.09375 3.296875q-2.21875 2.34375 -4.703125 2.671875q-2.5 0.328125 -4.65625 -0.953125q-2.15625 -1.296875 -3.5 -3.8125q-1.359375 -2.515625 -1.359375 -5.890625q0 -3.171875 1.109375 -5.6875q1.109375 -2.53125 2.84375 -4.03125l4.078125 4.5625q-0.890625 0.96875 -1.34375 2.375q-0.453125 1.40625 -0.453125 2.734375q0 1.375 0.578125 2.40625q0.5625 1.015625 1.9375 1.015625q1.09375 0 1.75 -0.84375q0.65625 -0.84375 1.140625 -2.1875q0.46875 -1.359375 0.984375 -2.9375q0.515625 -1.59375 1.296875 -3.03125q0.953125 -1.875 2.734375 -3.125q1.765625 -1.265625 4.578125 -1.265625q3.0625 0 5.171875 1.46875q2.09375 1.46875 3.203125 3.875q1.109375 2.40625 1.109375 5.25q0 2.84375 -1.109375 5.640625q-1.109375 2.78125 -3.390625 5.0625zm4.078125 -52.7406l0 7.203125l-17.28125 0q-3.0625 0 -4.4375 1.59375q-1.375 1.59375 -1.375 4.34375q0 2.53125 1.59375 4.0625q1.578125 1.53125 3.3125 1.53125l18.1875 0l0 7.1875l-42.0 0l0 -7.1875l13.625 0q-1.203125 -1.453125 -1.59375 -3.453125q-0.390625 -2.015625 -0.21875 -4.171875q0.671875 -5.46875 4.1875 -8.28125q3.5 -2.828125 8.71875 -2.828125l17.28125 0zm-12.234375 -33.53369l0 21.0q2.6875 -0.234375 4.140625 -2.03125q1.4375 -1.8125 1.65625 -4.453125q0.203125 -2.640625 -0.71875 -5.421875q-0.9375 -2.796875 -2.859375 -5.015625l5.453125 -3.953125q2.765625 3.296875 3.9375 6.6875q1.171875 3.390625 1.171875 6.6875q0 7.625 -4.265625 11.4375q-4.265625 3.796875 -12.0625 3.796875q-4.4375 0 -7.734375 -1.765625q-3.296875 -1.765625 -5.09375 -5.03125q-1.8125 -3.28125 -1.75 -7.71875q0.125 -9.71875 7.625 -12.953125q2.15625 -0.90625 4.734375 -1.171875q2.578125 -0.265625 5.765625 -0.09375zm-11.40625 13.5625q0 3.65625 1.984375 5.546875q1.96875 1.890625 4.375 1.890625l0 -14.8125q-2.453125 0 -4.40625 1.890625q-1.953125 1.875 -1.953125 5.484375zm23.640625 -26.34497l0 7.203125l-42.0 0l0 -7.203125l42.0 0zm0 -14.400024l0 7.203125l-42.0 0l0 -7.203125l42.0 0z" fill-rule="nonzero"/></g><g filter="url(#shadowFilter-g35ed75ccf_033.11)"><use xlink:href="#g35ed75ccf_033.11" transform="matrix(1.0 0.0 0.0 1.0 0.0 2.0)"/></g><defs><filter id="shadowFilter-g35ed75ccf_033.11" filterUnits="userSpaceOnUse"><feGaussianBlur in="SourceAlpha" stdDeviation="2.0" result="blur"/><feComponentTransfer in="blur" color-interpolation-filters="sRGB"><feFuncR type="linear" slope="0" intercept="0.22352941"/><feFuncG type="linear" slope="0" intercept="0.15294118"/><feFuncB type="linear" slope="0" intercept="0.24705882"/><feFuncA type="linear" slope="0.5" intercept="0"/></feComponentTransfer></filter></defs><g id="g35ed75ccf_033.11"><path fill="#000000" fill-opacity="0.0" d="m237.53543 135.74512l476.6929 0l0 186.17322l-476.6929 0z" fill-rule="evenodd"/><path fill="#ffffff" d="m422.565 199.54723l-7.671875 0l0 -44.796875l7.671875 0l0 1.734375q3.65625 -2.1875 7.484375 -1.953125q3.84375 0.21875 7.109375 2.40625q3.265625 2.171875 5.25 5.890625q1.984375 3.703125 1.984375 8.5q0 4.34375 -1.953125 7.9375q-1.953125 3.578125 -5.25 5.734375q-3.296875 2.140625 -7.390625 2.203125q-0.953125 0 -2.359375 -0.140625q-1.40625 -0.125 -2.71875 -0.46875q-1.3125 -0.359375 -2.15625 -0.9375l0 13.890625zm0 -21.109375q3.71875 1.71875 6.90625 1.34375q3.203125 -0.390625 5.1875 -2.59375q1.984375 -2.21875 1.984375 -5.859375q0 -4.21875 -2.078125 -6.65625q-2.078125 -2.4375 -5.28125 -2.75q-3.1875 -0.328125 -6.71875 1.78125l0 14.734375zm55.108307 8.3125l-7.671875 0l0 -2.5q-0.78125 1.546875 -2.921875 2.3125q-2.140625 0.765625 -4.859375 0.765625q-2.71875 0 -5.25 -0.734375q-2.53125 -0.734375 -4.125 -2.140625q-3.96875 -3.59375 -3.96875 -10.625l0 -19.078125l7.671875 0l0 19.078125q0 3.265625 1.953125 4.703125q1.953125 1.4375 4.90625 1.4375q1.46875 0 3.0 -0.640625q1.53125 -0.640625 2.5625 -1.984375q1.03125 -1.34375 1.03125 -3.515625l0 -19.078125l7.671875 0l0 32.0zm6.4036865 0l0 -32.0l7.609375 0l0 2.375q2.5 -2.5625 5.984375 -2.5q3.484375 0.0625 7.71875 1.40625l-3.71875 6.59375q-2.421875 -0.828125 -4.765625 -0.5q-2.328125 0.3125 -3.8125 1.40625q-1.46875 1.078125 -1.40625 2.609375l0 20.609375l-7.609375 0zm53.24759 -13.0625l-22.40625 0q0.265625 2.890625 2.171875 4.421875q1.921875 1.53125 4.734375 1.765625q2.828125 0.21875 5.796875 -0.765625q2.984375 -1.0 5.34375 -3.046875l4.234375 5.828125q-3.53125 2.9375 -7.140625 4.1875q-3.609375 1.25 -7.140625 1.25q-8.125 0 -12.1875 -4.546875q-4.0625 -4.546875 -4.0625 -12.859375q0 -4.734375 1.890625 -8.25q1.890625 -3.53125 5.375 -5.453125q3.484375 -1.921875 8.21875 -1.859375q10.375 0.140625 13.828125 8.140625q0.953125 2.296875 1.234375 5.046875q0.296875 2.75 0.109375 6.140625zm-14.46875 -12.15625q-3.90625 0 -5.921875 2.125q-2.015625 2.109375 -2.015625 4.65625l15.8125 0q0 -2.625 -2.015625 -4.703125q-2.015625 -2.078125 -5.859375 -2.078125z" fill-rule="nonzero"/><path fill="#ffffff" d="m358.56827 210.62785q-2.6875 0 -4.296875 0.453125q-1.59375 0.4375 -2.265625 1.65625q-0.671875 1.21875 -0.734375 3.578125l4.734375 0l0 6.71875l-4.734375 0l0 25.28125l-7.546875 0l0 -25.28125l-4.671875 0l0 -6.71875l4.734375 0q0 -6.453125 3.515625 -10.03125q3.53125 -3.59375 11.265625 -3.21875l0 7.5625zm30.721191 37.5625l-7.671875 0l0 -2.5q-0.78125 1.546875 -2.921875 2.3125q-2.140625 0.765625 -4.859375 0.765625q-2.71875 0 -5.25 -0.734375q-2.53125 -0.734375 -4.125 -2.140625q-3.96875 -3.59375 -3.96875 -10.625l0 -19.078125l7.671875 0l0 19.078125q0 3.265625 1.953125 4.703125q1.953125 1.4375 4.90625 1.4375q1.46875 0 3.0 -0.640625q1.53125 -0.640625 2.5625 -1.984375q1.03125 -1.34375 1.03125 -3.515625l0 -19.078125l7.671875 0l0 32.0zm35.20056 0l-7.6875 0l0 -18.6875q0 -2.625 -0.984375 -3.9375q-0.984375 -1.3125 -2.4375 -1.75q-1.4375 -0.453125 -2.78125 -0.453125q-1.28125 0 -2.984375 0.453125q-1.6875 0.4375 -2.96875 1.75q-1.28125 1.3125 -1.28125 3.9375l0 18.6875l-7.671875 0l0 -32.0l7.671875 0l0 2.296875q1.09375 -1.46875 3.390625 -2.078125q2.3125 -0.609375 4.421875 -0.609375q4.09375 0 7.0625 1.734375q2.984375 1.734375 4.609375 4.8125q1.640625 3.0625 1.640625 7.15625l0 18.6875zm32.32556 -4.421875q-3.203125 3.078125 -6.921875 4.234375q-3.703125 1.140625 -7.296875 0.5625q-3.578125 -0.5625 -6.53125 -2.671875q-2.9375 -2.125 -4.703125 -5.578125q-1.75 -3.453125 -1.75 -8.125q0 -4.796875 1.71875 -8.28125q1.734375 -3.5 4.671875 -5.515625q2.953125 -2.015625 6.53125 -2.453125q3.59375 -0.453125 7.359375 0.796875q3.78125 1.25 7.109375 4.3125l-5.125 5.4375q-1.921875 -2.296875 -4.390625 -2.875q-2.453125 -0.578125 -4.796875 0.328125q-2.328125 0.890625 -3.84375 3.03125q-1.5 2.140625 -1.5 5.21875q0 3.328125 1.5 5.515625q1.515625 2.171875 3.8125 3.03125q2.3125 0.859375 4.875 0.25q2.5625 -0.609375 4.671875 -2.84375l4.609375 5.625zm9.980713 -10.109375l0 -10.359375l-4.671875 0l0 -7.109375l4.671875 0l0 -12.796875l7.546875 0l0 12.796875l5.0 0l0 7.109375l-5.0 0l0 10.359375q0 2.890625 0.453125 4.359375q0.453125 1.46875 1.25 2.015625q0.796875 0.546875 1.78125 0.609375q1.0 0.0625 2.015625 0.0625l1.09375 0l0 7.609375l-0.953125 0q-3.53125 0 -6.03125 -0.5q-2.484375 -0.515625 -4.09375 -2.015625q-1.59375 -1.515625 -2.328125 -4.421875q-0.734375 -2.921875 -0.734375 -7.71875zm24.576569 -21.25q-1.984375 0 -3.328125 -1.34375q-1.34375 -1.34375 -1.34375 -3.328125q0 -1.921875 1.34375 -3.265625q1.34375 -1.34375 3.328125 -1.34375q1.921875 0 3.265625 1.34375q1.34375 1.34375 1.34375 3.265625q0 1.984375 -1.34375 3.328125q-1.34375 1.34375 -3.265625 1.34375zm3.515625 35.78125l-7.03125 0l0 -32.0l7.03125 0l0 32.0zm21.056274 0.828125q-4.6094055 0 -8.0937805 -2.015625q-3.484375 -2.015625 -5.4375 -5.625q-1.953125 -3.625 -1.953125 -8.421875q0 -8.453125 4.25 -12.765625q4.265625 -4.3125 11.2344055 -4.3125q4.546875 0 8.03125 1.921875q3.484375 1.90625 5.46875 5.71875q1.984375 3.8125 1.984375 9.4375q0 4.796875 -1.984375 8.421875q-1.984375 3.609375 -5.46875 5.625q-3.484375 2.015625 -8.03125 2.015625zm0 -7.359375q2.625 0 4.4375 -1.25q1.828125 -1.25 2.75 -3.21875q0.9375 -1.984375 0.9375 -4.234375q0 -4.03125 -2.078125 -6.875q-2.078125 -2.84375 -6.046875 -2.84375q-3.84375 0 -5.9844055 2.75q-2.140625 2.75 -2.140625 6.96875q0 2.3125 0.953125 4.296875q0.96875 1.984375 2.78125 3.203125q1.8281555 1.203125 4.3906555 1.203125zm50.04901 6.53125l-7.6875 0l0 -18.6875q0 -2.625 -0.984375 -3.9375q-0.984375 -1.3125 -2.4375 -1.75q-1.4375 -0.453125 -2.78125 -0.453125q-1.28125 0 -2.984375 0.453125q-1.6875 0.4375 -2.96875 1.75q-1.28125 1.3125 -1.28125 3.9375l0 18.6875l-7.671875 0l0 -32.0l7.671875 0l0 2.296875q1.09375 -1.46875 3.390625 -2.078125q2.3125 -0.609375 4.421875 -0.609375q4.09375 0 7.0625 1.734375q2.984375 1.734375 4.609375 4.8125q1.640625 3.0625 1.640625 7.15625l0 18.6875zm14.981812 0.3125q-4.875 -0.25 -7.375 -2.765625q-2.484375 -2.53125 -2.484375 -7.015625q0 -3.265625 1.65625 -5.59375q1.671875 -2.34375 4.421875 -3.6875q2.75 -1.34375 6.109375 -1.65625q3.359375 -0.328125 6.8125 0.4375l0 -1.984375q0 -2.046875 -1.671875 -2.9375q-1.65625 -0.90625 -4.0625 -0.828125q-2.390625 0.0625 -4.796875 0.921875q-2.390625 0.859375 -3.859375 2.453125l-4.296875 -4.671875q2.4375 -2.359375 5.765625 -3.703125q3.328125 -1.34375 6.875 -1.53125q3.5625 -0.203125 6.71875 0.828125q3.171875 1.015625 5.21875 3.328125q1.609375 1.796875 1.796875 4.734375q0.1875 2.9375 0.1875 6.46875l0 16.890625l-7.8125 0l0 -2.9375q-1.984375 1.84375 -4.421875 2.59375q-2.421875 0.734375 -4.78125 0.65625zm8.953125 -9.34375l0 -5.5q-6.65625 -0.515625 -9.25 0.828125q-2.59375 1.34375 -2.59375 4.171875q0 1.78125 1.25 2.59375q1.25 0.796875 3.140625 0.765625q1.890625 -0.03125 3.90625 -0.765625q2.015625 -0.75 3.546875 -2.09375zm22.139954 9.03125l-7.671875 0l0 -44.796875l7.671875 0l0 44.796875z" fill-rule="nonzero"/><path fill="#ffffff" d="m442.3836 305.20847q-3.203125 3.078125 -6.921875 4.234375q-3.703125 1.140625 -7.296875 0.5625q-3.578125 -0.5625 -6.53125 -2.671875q-2.9375 -2.125 -4.703125 -5.578125q-1.75 -3.453125 -1.75 -8.125q0 -4.796875 1.71875 -8.28125q1.734375 -3.5 4.671875 -5.515625q2.953125 -2.015625 6.53125 -2.453125q3.59375 -0.453125 7.359375 0.796875q3.78125 1.25 7.109375 4.3125l-5.125 5.4375q-1.921875 -2.296875 -4.390625 -2.875q-2.453125 -0.578125 -4.796875 0.328125q-2.328125 0.890625 -3.84375 3.03125q-1.5 2.140625 -1.5 5.21875q0 3.328125 1.5 5.515625q1.515625 2.171875 3.8125 3.03125q2.3125 0.859375 4.875 0.25q2.5625 -0.609375 4.671875 -2.84375l4.609375 5.625zm19.513214 5.25q-4.609375 0 -8.09375 -2.015625q-3.484375 -2.015625 -5.4375 -5.625q-1.953125 -3.625 -1.953125 -8.421875q0 -8.453125 4.25 -12.765625q4.265625 -4.3125 11.234375 -4.3125q4.546875 0 8.03125 1.921875q3.484375 1.90625 5.46875 5.71875q1.984375 3.8125 1.984375 9.4375q0 4.796875 -1.984375 8.421875q-1.984375 3.609375 -5.46875 5.625q-3.484375 2.015625 -8.03125 2.015625zm0 -7.359375q2.625 0 4.4375 -1.25q1.828125 -1.25 2.75 -3.21875q0.9375 -1.984375 0.9375 -4.234375q0 -4.03125 -2.078125 -6.875q-2.078125 -2.84375 -6.046875 -2.84375q-3.84375 0 -5.984375 2.75q-2.140625 2.75 -2.140625 6.96875q0 2.3125 0.953125 4.296875q0.96875 1.984375 2.78125 3.203125q1.828125 1.203125 4.390625 1.203125zm21.252167 6.53125l0 -32.0l7.609375 0l0 2.375q2.5 -2.5625 5.984375 -2.5q3.484375 0.0625 7.71875 1.40625l-3.71875 6.59375q-2.421875 -0.828125 -4.765625 -0.5q-2.328125 0.3125 -3.8125 1.40625q-1.46875 1.078125 -1.40625 2.609375l0 20.609375l-7.609375 0zm53.24762 -13.0625l-22.40625 0q0.265625 2.890625 2.171875 4.421875q1.921875 1.53125 4.734375 1.765625q2.828125 0.21875 5.796875 -0.765625q2.984375 -1.0 5.34375 -3.046875l4.234375 5.828125q-3.53125 2.9375 -7.140625 4.1875q-3.609375 1.25 -7.140625 1.25q-8.125 0 -12.1875305 -4.546875q-4.0625 -4.546875 -4.0625 -12.859375q0 -4.734375 1.890625 -8.25q1.890625 -3.53125 5.3750305 -5.453125q3.484375 -1.921875 8.21875 -1.859375q10.375 0.140625 13.828125 8.140625q0.953125 2.296875 1.234375 5.046875q0.296875 2.75 0.109375 6.140625zm-14.46875 -12.15625q-3.90625 0 -5.921875 2.125q-2.015625 2.109375 -2.015625 4.65625l15.8125 0q0 -2.625 -2.015625 -4.703125q-2.015625 -2.078125 -5.859375 -2.078125z" fill-rule="nonzero"/></g><g filter="url(#shadowFilter-g35ed75ccf_033.12)"><use xlink:href="#g35ed75ccf_033.12" transform="matrix(1.0 0.0 0.0 1.0 0.0 2.0)"/></g><defs><filter id="shadowFilter-g35ed75ccf_033.12" filterUnits="userSpaceOnUse"><feGaussianBlur in="SourceAlpha" stdDeviation="2.0" result="blur"/><feComponentTransfer in="blur" color-interpolation-filters="sRGB"><feFuncR type="linear" slope="0" intercept="0.22352941"/><feFuncG type="linear" slope="0" intercept="0.15294118"/><feFuncB type="linear" slope="0" intercept="0.24705882"/><feFuncA type="linear" slope="0.5" intercept="0"/></feComponentTransfer></filter></defs><g id="g35ed75ccf_033.12"><path fill="#000000" fill-opacity="0.0" d="m237.53543 317.96896l476.6929 0l0 48.629913l-476.6929 0z" fill-rule="evenodd"/><path fill="#ffffff" d="m364.31372 351.6158q-2.640625 -0.15625 -4.0625 -2.015625q-1.40625 -1.875 -1.40625 -4.78125q0 -2.0 0.71875 -3.5q0.71875 -1.5 2.09375 -2.359375q1.375 -0.859375 3.296875 -0.859375q0.828125 0 1.671875 0.09375q0.859375 0.09375 2.0 0.640625l0 -5.921875l1.734375 0l0 18.65625l-1.734375 0l0 -1.3125q-0.765625 0.5625 -1.84375 1.015625q-1.078125 0.453125 -2.46875 0.34375zm4.3125 -2.84375l0 -8.265625q-2.09375 -0.875 -3.921875 -0.6875q-1.828125 0.1875 -2.953125 1.4375q-1.109375 1.25 -1.109375 3.5625q0 1.796875 0.6875 3.03125q0.6875 1.21875 1.84375 1.765625q1.171875 0.546875 2.578125 0.359375q1.421875 -0.1875 2.875 -1.203125zm16.66452 -3.40625l-10.71875 0q0.03125 1.890625 0.9375 3.03125q0.90625 1.140625 2.328125 1.53125q1.4375 0.390625 3.078125 0.046875q1.65625 -0.359375 3.171875 -1.46875l0.90625 1.390625q-1.25 0.953125 -2.640625 1.40625q-1.375 0.453125 -2.796875 0.5q-3.296875 0.109375 -5.09375 -1.828125q-1.78125 -1.953125 -1.78125 -5.421875q0 -2.984375 1.65625 -4.71875q1.65625 -1.734375 4.875 -1.734375q2.046875 0 3.53125 0.859375q1.484375 0.859375 2.171875 2.53125q0.328125 0.78125 0.40625 1.765625q0.078125 0.984375 -0.03125 2.109375zm-6.015625 -5.609375q-1.265625 0 -2.328125 0.4375q-1.0625 0.421875 -1.71875 1.3125q-0.65625 0.890625 -0.65625 2.328125l9.125 0q0 -2.015625 -1.203125 -3.046875q-1.203125 -1.03125 -3.21875 -1.03125zm10.620331 6.15625l0 -6.046875l-2.421875 0l0 -1.625l2.421875 0l0 -5.328125l1.765625 0l0 5.328125l2.453125 0l0 1.625l-2.453125 0l0 6.046875q0 1.734375 0.0625 2.578125q0.078125 0.84375 0.375 1.125q0.3125 0.28125 1.109375 0.28125l0.71875 0l0 1.75l-0.671875 0q-1.140625 0 -1.8125 -0.21875q-0.65625 -0.234375 -1.0 -0.828125q-0.328125 -0.609375 -0.4375 -1.734375q-0.109375 -1.140625 -0.109375 -2.953125zm18.585876 -0.546875l-10.71875 0q0.03125 1.890625 0.9375 3.03125q0.90625 1.140625 2.328125 1.53125q1.4375 0.390625 3.078125 0.046875q1.65625 -0.359375 3.171875 -1.46875l0.90625 1.390625q-1.25 0.953125 -2.640625 1.40625q-1.375 0.453125 -2.796875 0.5q-3.296875 0.109375 -5.09375 -1.828125q-1.78125 -1.953125 -1.78125 -5.421875q0 -2.984375 1.65625 -4.71875q1.65625 -1.734375 4.875 -1.734375q2.046875 0 3.53125 0.859375q1.484375 0.859375 2.171875 2.53125q0.328125 0.78125 0.40625 1.765625q0.078125 0.984375 -0.03125 2.109375zm-6.015625 -5.609375q-1.265625 0 -2.328125 0.4375q-1.0625 0.421875 -1.71875 1.3125q-0.65625 0.890625 -0.65625 2.328125l9.125 0q0 -2.015625 -1.203125 -3.046875q-1.203125 -1.03125 -3.21875 -1.03125zm8.730743 11.8125l0 -13.109375l1.734375 0l0 1.296875q0.859375 -0.953125 2.09375 -1.25q1.234375 -0.296875 3.265625 0.265625l-0.765625 1.578125q-1.28125 -0.453125 -2.328125 -0.125q-1.03125 0.328125 -1.65625 1.109375q-0.609375 0.765625 -0.609375 1.59375l0 8.640625l-1.734375 0zm29.488647 0l-1.734375 0l0 -7.9375q0 -1.921875 -1.03125 -2.90625q-1.015625 -0.984375 -2.640625 -0.984375q-1.65625 0 -2.734375 0.984375q-1.0625 0.984375 -1.0625 2.90625l0 7.9375l-1.703125 0l0 -7.9375q0 -2.0 -1.09375 -2.9375q-1.09375 -0.953125 -2.796875 -0.953125q-0.796875 0 -1.671875 0.40625q-0.859375 0.40625 -1.46875 1.28125q-0.59375 0.859375 -0.59375 2.203125l0 7.9375l-1.734375 0l0 -13.328125l1.734375 0l0 1.5q0.671875 -0.8125 1.640625 -1.21875q0.96875 -0.421875 2.0625 -0.4375q1.34375 0 2.640625 0.546875q1.3125 0.546875 2.21875 1.734375q0.75 -1.171875 2.0 -1.71875q1.25 -0.546875 2.65625 -0.546875q1.359375 0 2.578125 0.640625q1.21875 0.625 1.96875 1.859375q0.765625 1.234375 0.765625 3.03125l0 7.9375zm3.6421204 -15.140625q-0.53125 0 -0.890625 -0.359375q-0.359375 -0.359375 -0.359375 -0.859375q0 -0.546875 0.359375 -0.90625q0.359375 -0.359375 0.890625 -0.359375q0.515625 0 0.875 0.359375q0.359375 0.359375 0.359375 0.90625q0 0.5 -0.359375 0.859375q-0.359375 0.359375 -0.875 0.359375zm0.828125 15.140625l-1.671875 0l0 -13.328125l1.671875 0l0 13.328125zm14.644623 0l-1.765625 0l0 -7.9375q0 -1.359375 -0.578125 -2.203125q-0.5625 -0.84375 -1.484375 -1.234375q-0.921875 -0.40625 -1.953125 -0.40625q-1.0 0 -1.9375 0.4375q-0.921875 0.4375 -1.515625 1.296875q-0.578125 0.84375 -0.578125 2.109375l0 7.9375l-1.765625 0l0 -13.328125l1.765625 0l0 1.59375q0.671875 -0.90625 1.75 -1.34375q1.09375 -0.4375 2.328125 -0.40625q1.515625 0 2.8125 0.609375q1.3125 0.609375 2.109375 1.84375q0.8125 1.21875 0.8125 3.09375l0 7.9375zm3.6397095 -15.140625q-0.53125 0 -0.890625 -0.359375q-0.359375 -0.359375 -0.359375 -0.859375q0 -0.546875 0.359375 -0.90625q0.359375 -0.359375 0.890625 -0.359375q0.515625 0 0.875 0.359375q0.359375 0.359375 0.359375 0.90625q0 0.5 -0.359375 0.859375q-0.359375 0.359375 -0.875 0.359375zm0.828125 15.140625l-1.671875 0l0 -13.328125l1.671875 0l0 13.328125zm2.2675476 -1.4375l1.046875 -1.171875q0.875 0.640625 1.734375 0.96875q0.875 0.328125 1.734375 0.3125q0.53125 0 1.015625 -0.15625q0.5 -0.171875 0.953125 -0.484375q0.5625 -0.4375 0.765625 -1.0625q0.21875 -0.640625 -0.015625 -1.265625q-0.21875 -0.609375 -0.796875 -0.984375q-0.5625 -0.375 -1.328125 -0.640625q-0.765625 -0.265625 -1.5625 -0.515625q-0.796875 -0.25 -1.515625 -0.65625q-1.25 -0.71875 -1.671875 -1.734375q-0.40625 -1.015625 -0.125 -2.0q0.296875 -1.0 1.1875 -1.71875q0.90625 -0.734375 2.265625 -0.859375q1.359375 -0.140625 2.6875 0.234375q1.328125 0.375 2.078125 1.0625l-1.09375 1.09375q-0.75 -0.421875 -1.59375 -0.640625q-0.828125 -0.234375 -1.578125 -0.234375q-0.9375 0.03125 -1.59375 0.453125q-0.640625 0.421875 -0.71875 1.3125q-0.109375 0.828125 0.4375 1.3125q0.546875 0.46875 1.546875 0.8125q1.0 0.34375 2.25 0.78125q1.484375 0.53125 2.265625 1.625q0.796875 1.09375 0.421875 2.71875q-0.234375 1.328125 -1.21875 2.09375q-0.96875 0.75 -2.3125 0.921875q-1.34375 0.171875 -2.75 -0.203125q-1.390625 -0.390625 -2.515625 -1.375zm13.2708435 -4.21875l0 -6.046875l-2.421875 0l0 -1.625l2.421875 0l0 -5.328125l1.765625 0l0 5.328125l2.453125 0l0 1.625l-2.453125 0l0 6.046875q0 1.734375 0.0625 2.578125q0.078125 0.84375 0.375 1.125q0.3125 0.28125 1.109375 0.28125l0.71875 0l0 1.75l-0.671875 0q-1.140625 0 -1.8125 -0.21875q-0.65625 -0.234375 -1.0 -0.828125q-0.328125 -0.609375 -0.4375 -1.734375q-0.109375 -1.140625 -0.109375 -2.953125zm7.996887 -9.484375q-0.53125 0 -0.890625 -0.359375q-0.359375 -0.359375 -0.359375 -0.859375q0 -0.546875 0.359375 -0.90625q0.359375 -0.359375 0.890625 -0.359375q0.515625 0 0.875 0.359375q0.359375 0.359375 0.359375 0.90625q0 0.5 -0.359375 0.859375q-0.359375 0.359375 -0.875 0.359375zm0.828125 15.140625l-1.671875 0l0 -13.328125l1.671875 0l0 13.328125zm13.126923 -1.671875q-1.390625 1.21875 -2.90625 1.640625q-1.5 0.40625 -2.921875 0.09375q-1.40625 -0.296875 -2.546875 -1.21875q-1.140625 -0.921875 -1.8125 -2.34375q-0.671875 -1.4375 -0.671875 -3.265625q0 -1.8125 0.671875 -3.203125q0.671875 -1.390625 1.8125 -2.234375q1.140625 -0.859375 2.546875 -1.125q1.421875 -0.265625 2.9375 0.15625q1.53125 0.40625 2.90625 1.578125l-1.0625 1.28125q-1.3125 -1.046875 -2.71875 -1.25q-1.40625 -0.21875 -2.625 0.296875q-1.21875 0.515625 -1.96875 1.671875q-0.734375 1.140625 -0.734375 2.828125q0 1.78125 0.765625 3.03125q0.78125 1.234375 2.015625 1.8125q1.234375 0.5625 2.640625 0.328125q1.40625 -0.25 2.65625 -1.4375l1.015625 1.359375zm13.793823 -13.46875q-0.53125 0 -0.890625 -0.359375q-0.359375 -0.359375 -0.359375 -0.859375q0 -0.546875 0.359375 -0.90625q0.359375 -0.359375 0.890625 -0.359375q0.515625 0 0.875 0.359375q0.359375 0.359375 0.359375 0.90625q0 0.5 -0.359375 0.859375q-0.359375 0.359375 -0.875 0.359375zm0.828125 15.140625l-1.671875 0l0 -13.328125l1.671875 0l0 13.328125zm14.644653 0l-1.765625 0l0 -7.9375q0 -1.359375 -0.578125 -2.203125q-0.5625 -0.84375 -1.484375 -1.234375q-0.921875 -0.40625 -1.953125 -0.40625q-1.0 0 -1.9375 0.4375q-0.921875 0.4375 -1.515625 1.296875q-0.578125 0.84375 -0.578125 2.109375l0 7.9375l-1.765625 0l0 -13.328125l1.765625 0l0 1.59375q0.671875 -0.90625 1.75 -1.34375q1.09375 -0.4375 2.328125 -0.40625q1.515625 0 2.8125 0.609375q1.3125 0.609375 2.109375 1.84375q0.8125 1.21875 0.8125 3.09375l0 7.9375zm24.034607 0l-1.75 0l0 -8.03125q0 -1.96875 -1.125 -2.875q-1.125 -0.90625 -2.90625 -0.90625q-0.984375 0 -1.875 0.40625q-0.890625 0.390625 -1.46875 1.03125q-0.578125 0.640625 -0.578125 1.3125l0 9.0625l-1.75 0l0 -18.65625l1.75 0l0 6.84375q0.75 -0.90625 1.890625 -1.28125q1.15625 -0.375 2.109375 -0.375q2.671875 0.09375 4.1875 1.453125q1.515625 1.359375 1.515625 3.984375l0 8.03125zm14.664551 -6.203125l-10.71875 0q0.03125 1.890625 0.9375 3.03125q0.90625 1.140625 2.328125 1.53125q1.4375 0.390625 3.078125 0.046875q1.65625 -0.359375 3.171875 -1.46875l0.90625 1.390625q-1.25 0.953125 -2.640625 1.40625q-1.375 0.453125 -2.796875 0.5q-3.296875 0.109375 -5.09375 -1.828125q-1.78125 -1.953125 -1.78125 -5.421875q0 -2.984375 1.65625 -4.71875q1.65625 -1.734375 4.875 -1.734375q2.046875 0 3.53125 0.859375q1.484375 0.859375 2.171875 2.53125q0.328125 0.78125 0.40625 1.765625q0.078125 0.984375 -0.03125 2.109375zm-6.015625 -5.609375q-1.265625 0 -2.328125 0.4375q-1.0625 0.421875 -1.71875 1.3125q-0.65625 0.890625 -0.65625 2.328125l9.125 0q0 -2.015625 -1.203125 -3.046875q-1.203125 -1.03125 -3.21875 -1.03125zm8.730713 11.8125l0 -13.109375l1.734375 0l0 1.296875q0.859375 -0.953125 2.09375 -1.25q1.234375 -0.296875 3.265625 0.265625l-0.765625 1.578125q-1.28125 -0.453125 -2.328125 -0.125q-1.03125 0.328125 -1.65625 1.109375q-0.609375 0.765625 -0.609375 1.59375l0 8.640625l-1.734375 0zm20.155334 -6.203125l-10.71875 0q0.03125 1.890625 0.9375 3.03125q0.90625 1.140625 2.328125 1.53125q1.4375 0.390625 3.078125 0.046875q1.65625 -0.359375 3.171875 -1.46875l0.90625 1.390625q-1.25 0.953125 -2.640625 1.40625q-1.375 0.453125 -2.796875 0.5q-3.296875 0.109375 -5.09375 -1.828125q-1.78125 -1.953125 -1.78125 -5.421875q0 -2.984375 1.65625 -4.71875q1.65625 -1.734375 4.875 -1.734375q2.046875 0 3.53125 0.859375q1.484375 0.859375 2.171875 2.53125q0.328125 0.78125 0.40625 1.765625q0.078125 0.984375 -0.03125 2.109375zm-6.015625 -5.609375q-1.265625 0 -2.328125 0.4375q-1.0625 0.421875 -1.71875 1.3125q-0.65625 0.890625 -0.65625 2.328125l9.125 0q0 -2.015625 -1.203125 -3.046875q-1.203125 -1.03125 -3.21875 -1.03125z" fill-rule="nonzero"/><path fill="#ffffff" d="m400.1617 395.13144l1.046875 -1.171875q0.875 0.640625 1.734375 0.96875q0.875 0.328125 1.734375 0.3125q0.53125 0 1.015625 -0.15625q0.5 -0.171875 0.953125 -0.484375q0.5625 -0.4375 0.765625 -1.0625q0.21875 -0.640625 -0.015625 -1.265625q-0.21875 -0.609375 -0.796875 -0.984375q-0.5625 -0.375 -1.328125 -0.640625q-0.765625 -0.265625 -1.5625 -0.515625q-0.796875 -0.25 -1.515625 -0.65625q-1.25 -0.71875 -1.671875 -1.734375q-0.40625 -1.015625 -0.125 -2.0q0.296875 -1.0 1.1875 -1.71875q0.90625 -0.734375 2.265625 -0.859375q1.359375 -0.140625 2.6875 0.234375q1.328125 0.375 2.078125 1.0625l-1.09375 1.09375q-0.75 -0.421875 -1.59375 -0.640625q-0.828125 -0.234375 -1.578125 -0.234375q-0.9375 0.03125 -1.59375 0.453125q-0.640625 0.421875 -0.71875 1.3125q-0.109375 0.828125 0.4375 1.3125q0.546875 0.46875 1.546875 0.8125q1.0 0.34375 2.25 0.78125q1.484375 0.53125 2.265625 1.625q0.796875 1.09375 0.421875 2.71875q-0.234375 1.328125 -1.21875 2.09375q-0.96875 0.75 -2.3125 0.921875q-1.34375 0.171875 -2.75 -0.203125q-1.390625 -0.390625 -2.515625 -1.375zm15.280029 1.578125q-1.234375 -0.03125 -2.25 -0.453125q-1.0 -0.4375 -1.625 -1.3125q-0.609375 -0.875 -0.609375 -2.1875q0 -2.046875 1.171875 -3.1875q1.171875 -1.15625 3.25 -1.453125q2.09375 -0.296875 4.8125 0.1875l0 -1.015625q0 -1.03125 -0.640625 -1.625q-0.625 -0.609375 -1.59375 -0.8125q-0.96875 -0.21875 -2.046875 -0.0625q-1.078125 0.15625 -2.0 0.671875q-0.921875 0.5 -1.40625 1.296875l-1.140625 -1.203125q0.796875 -0.984375 1.90625 -1.5625q1.109375 -0.59375 2.328125 -0.765625q1.234375 -0.171875 2.390625 0.015625q1.15625 0.1875 2.0625 0.71875q1.046875 0.53125 1.421875 1.421875q0.390625 0.875 0.4375 2.03125q0.0625 1.15625 0.09375 2.515625l-0.03125 6.640625l-1.765625 0l0 -1.25q-1.015625 0.6875 -2.28125 1.046875q-1.265625 0.34375 -2.484375 0.34375zm4.75 -3.09375l0 -3.890625q-2.1875 -0.296875 -3.90625 -0.140625q-1.71875 0.15625 -2.703125 0.9375q-0.96875 0.765625 -0.96875 2.234375q0 0.9375 0.546875 1.46875q0.546875 0.53125 1.40625 0.703125q0.875 0.171875 1.890625 0.078125q1.03125 -0.109375 2.015625 -0.46875q0.984375 -0.375 1.71875 -0.921875zm12.090942 -14.15625q-1.734375 -0.078125 -2.5 0.34375q-0.75 0.40625 -0.953125 1.28125q-0.203125 0.875 -0.203125 2.15625l2.671875 0l0 1.546875l-2.671875 0l0 11.78125l-1.71875 0l0 -11.78125l-2.515625 0l0 -1.546875l2.515625 0q0 -1.765625 0.40625 -3.03125q0.40625 -1.265625 1.5625 -1.90625q1.171875 -0.640625 3.40625 -0.5l0 1.65625zm13.330231 10.90625l-10.71875 0q0.03125 1.890625 0.9375 3.03125q0.90625 1.140625 2.328125 1.53125q1.4375 0.390625 3.078125 0.046875q1.65625 -0.359375 3.171875 -1.46875l0.90625 1.390625q-1.25 0.953125 -2.640625 1.40625q-1.375 0.453125 -2.796875 0.5q-3.296875 0.109375 -5.09375 -1.828125q-1.78125 -1.953125 -1.78125 -5.421875q0 -2.984375 1.65625 -4.71875q1.65625 -1.734375 4.875 -1.734375q2.046875 0 3.53125 0.859375q1.484375 0.859375 2.171875 2.53125q0.328125 0.78125 0.40625 1.765625q0.078125 0.984375 -0.03125 2.109375zm-6.015625 -5.609375q-1.265625 0 -2.328125 0.4375q-1.0625 0.421875 -1.71875 1.3125q-0.65625 0.890625 -0.65625 2.328125l9.125 0q0 -2.015625 -1.203125 -3.046875q-1.203125 -1.03125 -3.21875 -1.03125zm32.5632 11.8125l-2.203125 -2.34375q-1.734375 1.59375 -3.46875 2.125q-1.734375 0.53125 -3.28125 0.265625q-1.546875 -0.265625 -2.734375 -1.109375q-1.1875 -0.859375 -1.8125 -2.09375q-0.625 -1.234375 -0.546875 -2.640625q0.078125 -1.40625 1.078125 -2.765625q1.0 -1.359375 3.078125 -2.421875l-1.296875 -1.59375q-0.78125 -0.9375 -0.84375 -2.046875q-0.046875 -1.109375 0.5 -2.09375q0.546875 -1.0 1.5625 -1.625q1.015625 -0.640625 2.421875 -0.640625q1.84375 0 2.9375 0.796875q1.09375 0.78125 1.703125 2.359375l-1.484375 0.578125q-0.4375 -1.09375 -1.1875 -1.609375q-0.734375 -0.515625 -1.984375 -0.46875q-1.09375 0.078125 -1.8125 0.734375q-0.703125 0.65625 -0.796875 1.5625q-0.09375 0.90625 0.6875 1.78125l7.28125 8.296875q0.3125 -0.640625 0.46875 -1.25q0.171875 -0.625 0.21875 -1.4375q0.046875 -0.8125 0.046875 -2.0625l1.625 0q0 1.28125 -0.0625 2.3125q-0.0625 1.015625 -0.328125 1.9375q-0.265625 0.921875 -0.875 1.859375l3.296875 3.59375l-2.1875 0zm-3.296875 -3.546875l-5.53125 -6.265625q-1.671875 0.828125 -2.5 1.84375q-0.828125 1.015625 -0.953125 2.078125q-0.109375 1.046875 0.359375 1.953125q0.46875 0.90625 1.359375 1.53125q0.890625 0.625 2.078125 0.796875q1.1875 0.171875 2.515625 -0.265625q1.328125 -0.4375 2.671875 -1.671875zm17.743591 2.109375l1.046875 -1.171875q0.875 0.640625 1.734375 0.96875q0.875 0.328125 1.734375 0.3125q0.53125 0 1.015625 -0.15625q0.5 -0.171875 0.953125 -0.484375q0.5625 -0.4375 0.765625 -1.0625q0.21875 -0.640625 -0.015625 -1.265625q-0.21875 -0.609375 -0.796875 -0.984375q-0.5625 -0.375 -1.328125 -0.640625q-0.765625 -0.265625 -1.5625 -0.515625q-0.796875 -0.25 -1.515625 -0.65625q-1.25 -0.71875 -1.671875 -1.734375q-0.40625 -1.015625 -0.125 -2.0q0.296875 -1.0 1.1875 -1.71875q0.90625 -0.734375 2.265625 -0.859375q1.359375 -0.140625 2.6875 0.234375q1.328125 0.375 2.078125 1.0625l-1.09375 1.09375q-0.75 -0.421875 -1.59375 -0.640625q-0.828125 -0.234375 -1.578125 -0.234375q-0.9375 0.03125 -1.59375 0.453125q-0.640625 0.421875 -0.71875 1.3125q-0.109375 0.828125 0.4375 1.3125q0.546875 0.46875 1.546875 0.8125q1.0 0.34375 2.25 0.78125q1.484375 0.53125 2.265625 1.625q0.796875 1.09375 0.421875 2.71875q-0.234375 1.328125 -1.21875 2.09375q-0.96875 0.75 -2.3125 0.921875q-1.34375 0.171875 -2.75 -0.203125q-1.390625 -0.390625 -2.515625 -1.375zm17.248749 1.75q-1.890625 0 -3.34375 -0.828125q-1.453125 -0.84375 -2.28125 -2.34375q-0.828125 -1.515625 -0.828125 -3.515625q0 -2.34375 0.859375 -3.90625q0.875 -1.578125 2.34375 -2.375q1.46875 -0.8125 3.25 -0.8125q1.890625 0 3.359375 0.8125q1.46875 0.796875 2.28125 2.375q0.8125 1.5625 0.8125 3.90625q0 2.0 -0.8125 3.515625q-0.8125 1.5 -2.28125 2.34375q-1.46875 0.828125 -3.359375 0.828125zm0 -1.703125q1.515625 0 2.578125 -0.65625q1.078125 -0.671875 1.625 -1.796875q0.546875 -1.140625 0.546875 -2.53125q0 -2.34375 -1.234375 -3.859375q-1.21875 -1.515625 -3.515625 -1.515625q-1.578125 0 -2.625 0.703125q-1.046875 0.703125 -1.59375 1.921875q-0.53125 1.203125 -0.53125 2.75q0 1.421875 0.53125 2.5625q0.546875 1.125 1.59375 1.78125q1.046875 0.640625 2.625 0.640625zm19.594482 1.390625l-1.734375 0l0 -1.515625q-0.609375 0.84375 -1.625 1.296875q-1.015625 0.4375 -2.203125 0.484375q-1.1875 0.046875 -2.328125 -0.296875q-1.140625 -0.34375 -1.96875 -1.0625q-0.796875 -0.6875 -1.25 -1.71875q-0.4375 -1.046875 -0.4375 -2.4375l0 -8.078125l1.765625 0l0 8.078125q0 2.0 1.140625 2.953125q1.15625 0.9375 2.9375 0.9375q0.875 0 1.796875 -0.40625q0.921875 -0.421875 1.546875 -1.28125q0.625 -0.875 0.625 -2.203125l0 -8.078125l1.734375 0l0 13.328125zm14.238037 0l-1.765625 0l0 -7.9375q0 -1.359375 -0.578125 -2.203125q-0.5625 -0.84375 -1.484375 -1.234375q-0.921875 -0.40625 -1.953125 -0.40625q-1.0 0 -1.9375 0.4375q-0.921875 0.4375 -1.515625 1.296875q-0.578125 0.84375 -0.578125 2.109375l0 7.9375l-1.765625 0l0 -13.328125l1.765625 0l0 1.59375q0.671875 -0.90625 1.75 -1.34375q1.09375 -0.4375 2.328125 -0.40625q1.515625 0 2.8125 0.609375q1.3125 0.609375 2.109375 1.84375q0.8125 1.21875 0.8125 3.09375l0 7.9375zm7.5928345 0.046875q-2.640625 -0.15625 -4.0625 -2.015625q-1.40625 -1.875 -1.40625 -4.78125q0 -2.0 0.71875 -3.5q0.71875 -1.5 2.09375 -2.359375q1.375 -0.859375 3.296875 -0.859375q0.828125 0 1.671875 0.09375q0.859375 0.09375 2.0 0.640625l0 -5.921875l1.734375 0l0 18.65625l-1.734375 0l0 -1.3125q-0.765625 0.5625 -1.84375 1.015625q-1.078125 0.453125 -2.46875 0.34375zm4.3125 -2.84375l0 -8.265625q-2.09375 -0.875 -3.921875 -0.6875q-1.828125 0.1875 -2.953125 1.4375q-1.109375 1.25 -1.109375 3.5625q0 1.796875 0.6875 3.03125q0.6875 1.21875 1.84375 1.765625q1.171875 0.546875 2.578125 0.359375q1.421875 -0.1875 2.875 -1.203125z" fill-rule="nonzero"/></g><g filter="url(#shadowFilter-g35ed75ccf_033.13)"><use xlink:href="#g35ed75ccf_033.13" transform="matrix(1.0 0.0 0.0 1.0 0.0 2.0)"/></g><defs><filter id="shadowFilter-g35ed75ccf_033.13" filterUnits="userSpaceOnUse"><feGaussianBlur in="SourceAlpha" stdDeviation="2.0" result="blur"/><feComponentTransfer in="blur" color-interpolation-filters="sRGB"><feFuncR type="linear" slope="0" intercept="0.22352941"/><feFuncG type="linear" slope="0" intercept="0.15294118"/><feFuncB type="linear" slope="0" intercept="0.24705882"/><feFuncA type="linear" slope="0.5" intercept="0"/></feComponentTransfer></filter></defs><g id="g35ed75ccf_033.13"><path fill="#000000" fill-opacity="0.0" d="m938.979 31.65399l0 476.6929l-48.629944 0l0 -476.6929z" fill-rule="evenodd"/><path fill="#940d7f" d="m903.25903 112.80478l1.515625 1.34375q-0.828125 1.140625 -1.265625 2.265625q-0.421875 1.140625 -0.390625 2.25q0 0.6875 0.203125 1.328125q0.21875 0.640625 0.625 1.234375q0.5625 0.71875 1.390625 1.0q0.828125 0.28125 1.625 -0.03125q0.796875 -0.28125 1.28125 -1.03125q0.484375 -0.734375 0.828125 -1.734375q0.359375 -0.984375 0.6875 -2.03125q0.328125 -1.03125 0.84375 -1.96875q0.9375 -1.625 2.25 -2.171875q1.3125 -0.53125 2.609375 -0.15625q1.3125 0.390625 2.25 1.546875q0.9375 1.171875 1.109375 2.9375q0.171875 1.765625 -0.3125 3.5q-0.484375 1.734375 -1.390625 2.703125l-1.421875 -1.421875q0.5625 -0.96875 0.84375 -2.0625q0.296875 -1.09375 0.296875 -2.0625q-0.03125 -1.21875 -0.59375 -2.0625q-0.546875 -0.84375 -1.6875 -0.953125q-1.078125 -0.140625 -1.703125 0.5625q-0.625 0.71875 -1.078125 2.015625q-0.4375 1.296875 -1.0 2.9375q-0.6875 1.9375 -2.109375 2.953125q-1.421875 1.03125 -3.53125 0.546875q-1.734375 -0.3125 -2.734375 -1.578125q-0.984375 -1.265625 -1.203125 -3.015625q-0.234375 -1.75 0.265625 -3.578125q0.515625 -1.8125 1.796875 -3.265625zm17.8125 16.351105q0 -0.6875 0.46875 -1.15625q0.46875 -0.46875 1.125 -0.46875q0.6875 0 1.15625 0.46875q0.46875 0.46875 0.46875 1.15625q0 0.65625 -0.46875 1.125q-0.46875 0.46875 -1.15625 0.46875q-0.65625 0 -1.125 -0.46875q-0.46875 -0.46875 -0.46875 -1.125zm-19.6875 1.078125l0 -2.1875l17.328125 0l0 2.1875l-17.328125 0zm-0.0625 10.042206q0.203125 -3.421875 2.625 -5.265625q2.421875 -1.828125 6.203125 -1.828125q2.609375 0 4.5625 0.921875q1.953125 0.9375 3.0625 2.71875q1.109375 1.796875 1.109375 4.296875q0 1.0625 -0.125 2.171875q-0.109375 1.109375 -0.8125 2.609375l7.703125 0l0 2.25l-24.265625 0l0 -2.25l1.703125 0q-0.734375 -1.015625 -1.328125 -2.421875q-0.578125 -1.390625 -0.4375 -3.203125zm3.703125 5.625l10.734375 0q1.15625 -2.734375 0.90625 -5.109375q-0.234375 -2.375 -1.875 -3.84375q-1.625 -1.453125 -4.640625 -1.453125q-2.3125 0 -3.921875 0.90625q-1.59375 0.90625 -2.296875 2.40625q-0.703125 1.515625 -0.46875 3.34375q0.25 1.84375 1.5625 3.75zm4.4375 21.653076l0 -13.921875q-2.46875 0.03125 -3.953125 1.203125q-1.484375 1.1875 -2.0 3.03125q-0.5 1.859375 -0.046875 4.0q0.453125 2.15625 1.90625 4.125l-1.796875 1.1875q-1.25 -1.625 -1.84375 -3.4375q-0.59375 -1.796875 -0.65625 -3.640625q-0.140625 -4.296875 2.390625 -6.625q2.53125 -2.3125 7.03125 -2.3125q3.890625 0 6.140625 2.140625q2.25 2.15625 2.25 6.34375q0 2.671875 -1.109375 4.59375q-1.109375 1.921875 -3.296875 2.828125q-1.0 0.421875 -2.28125 0.515625q-1.28125 0.109375 -2.734375 -0.03125zm7.28125 -7.828125q0 -1.625 -0.5625 -3.015625q-0.546875 -1.390625 -1.71875 -2.234375q-1.15625 -0.84375 -3.03125 -0.84375l0 11.84375q2.640625 0 3.96875 -1.5625q1.34375 -1.5625 1.34375 -4.1875zm-7.28125 40.47435l0 -13.921875q-2.46875 0.03125 -3.953125 1.203125q-1.484375 1.1875 -2.0 3.03125q-0.5 1.859375 -0.046875 4.0q0.453125 2.15625 1.90625 4.125l-1.796875 1.1875q-1.25 -1.625 -1.84375 -3.4375q-0.59375 -1.796875 -0.65625 -3.640625q-0.140625 -4.296875 2.390625 -6.625q2.53125 -2.3125 7.03125 -2.3125q3.890625 0 6.140625 2.140625q2.25 2.15625 2.25 6.34375q0 2.671875 -1.109375 4.59375q-1.109375 1.921875 -3.296875 2.828125q-1.0 0.421875 -2.28125 0.515625q-1.28125 0.109375 -2.734375 -0.03125zm7.28125 -7.828125q0 -1.625 -0.5625 -3.015625q-0.546875 -1.390625 -1.71875 -2.234375q-1.15625 -0.84375 -3.03125 -0.84375l0 11.84375q2.640625 0 3.96875 -1.5625q1.34375 -1.5625 1.34375 -4.1875zm6.890625 21.273712q0.109375 -2.25 -0.4375 -3.234375q-0.53125 -0.984375 -1.6875 -1.25q-1.140625 -0.265625 -2.796875 -0.265625l0 3.46875l-2.015625 0l0 -3.46875l-15.3125 0l0 -2.25l15.3125 0l0 -3.25l2.015625 0l0 3.25q2.28125 0 3.921875 0.53125q1.65625 0.546875 2.484375 2.046875q0.84375 1.515625 0.65625 4.421875l-2.140625 0zm0 11.297638q0.109375 -2.25 -0.4375 -3.234375q-0.53125 -0.984375 -1.6875 -1.25q-1.140625 -0.265625 -2.796875 -0.265625l0 3.46875l-2.015625 0l0 -3.46875l-15.3125 0l0 -2.25l15.3125 0l0 -3.25l2.015625 0l0 3.25q2.28125 0 3.921875 0.53125q1.65625 0.546875 2.484375 2.046875q0.84375 1.515625 0.65625 4.421875l-2.140625 0zm-14.171875 17.328888l0 -13.921875q-2.46875 0.03125 -3.953125 1.203125q-1.484375 1.1875 -2.0 3.03125q-0.5 1.859375 -0.046875 4.0q0.453125 2.15625 1.90625 4.125l-1.796875 1.1875q-1.25 -1.625 -1.84375 -3.4375q-0.59375 -1.796875 -0.65625 -3.640625q-0.140625 -4.296875 2.390625 -6.625q2.53125 -2.3125 7.03125 -2.3125q3.890625 0 6.140625 2.140625q2.25 2.15625 2.25 6.34375q0 2.671875 -1.109375 4.59375q-1.109375 1.921875 -3.296875 2.828125q-1.0 0.421875 -2.28125 0.515625q-1.28125 0.109375 -2.734375 -0.03125zm7.28125 -7.828125q0 -1.625 -0.5625 -3.015625q-0.546875 -1.390625 -1.71875 -2.234375q-1.15625 -0.84375 -3.03125 -0.84375l0 11.84375q2.640625 0 3.96875 -1.5625q1.34375 -1.5625 1.34375 -4.1875zm-13.171875 25.117447q-1.59375 -1.796875 -2.140625 -3.7656097q-0.53125 -1.953125 -0.125 -3.796875q0.390625 -1.828125 1.578125 -3.3125q1.203125 -1.484375 3.046875 -2.359375q1.859375 -0.859375 4.25 -0.859375q2.359375 0 4.15625 0.859375q1.8125 0.875 2.921875 2.359375q1.109375 1.484375 1.453125 3.3125q0.34375 1.84375 -0.203125 3.8125q-0.53125 1.9843597 -2.046875 3.7968597l-1.671875 -1.390625q1.359375 -1.703125 1.625 -3.5468597q0.28125 -1.828125 -0.390625 -3.40625q-0.671875 -1.578125 -2.171875 -2.546875q-1.484375 -0.96875 -3.671875 -0.96875q-2.3125 0 -3.9375 1.0q-1.609375 1.015625 -2.359375 2.625q-0.734375 1.609375 -0.421875 3.421875q0.3125 1.8281097 1.875 3.4531097l-1.765625 1.3125zm5.15625 5.974762l7.875 0l0 -3.15625l2.109375 0l0 3.15625l6.9375 0l0 2.28125l-6.9375 0l0 3.1875l-2.109375 0l0 -3.1875l-7.875 0q-2.25 0 -3.34375 0.078125q-1.09375 0.09375 -1.453125 0.484375q-0.359375 0.40625 -0.359375 1.453125l0 0.921875l-2.296875 0l0 -0.859375q0 -1.484375 0.296875 -2.359375q0.296875 -0.859375 1.078125 -1.296875q0.78125 -0.4375 2.25 -0.578125q1.46875 -0.125 3.828125 -0.125zm-5.46875 7.8642883l1.515625 1.34375q-0.828125 1.140625 -1.265625 2.265625q-0.421875 1.140625 -0.390625 2.25q0 0.6875 0.203125 1.328125q0.21875 0.640625 0.625 1.234375q0.5625 0.71875 1.390625 1.0q0.828125 0.28125 1.625 -0.03125q0.796875 -0.28125 1.28125 -1.03125q0.484375 -0.734375 0.828125 -1.734375q0.359375 -0.984375 0.6875 -2.03125q0.328125 -1.03125 0.84375 -1.96875q0.9375 -1.625 2.25 -2.171875q1.3125 -0.53125 2.609375 -0.15625q1.3125 0.390625 2.25 1.546875q0.9375 1.171875 1.109375 2.9375q0.171875 1.765625 -0.3125 3.5q-0.484375 1.734375 -1.390625 2.703125l-1.421875 -1.421875q0.5625 -0.96875 0.84375 -2.0625q0.296875 -1.09375 0.296875 -2.0625q-0.03125 -1.21875 -0.59375 -2.0625q-0.546875 -0.84375 -1.6875 -0.953125q-1.078125 -0.140625 -1.703125 0.5625q-0.625 0.71875 -1.078125 2.015625q-0.4375 1.296875 -1.0 2.9375q-0.6875 1.9375 -2.109375 2.953125q-1.421875 1.03125 -3.53125 0.546875q-1.734375 -0.3125 -2.734375 -1.578125q-0.984375 -1.265625 -1.203125 -3.015625q-0.234375 -1.75 0.265625 -3.578125q0.515625 -1.8125 1.796875 -3.265625zm-2.296875 35.926758q0 -2.453125 1.09375 -4.34375q1.09375 -1.890625 3.046875 -2.96875q1.96875 -1.0625 4.5625 -1.0625q3.046875 0 5.09375 1.125q2.046875 1.125 3.078125 3.03125q1.046875 1.90625 1.046875 4.21875q0 2.46875 -1.046875 4.375q-1.03125 1.90625 -3.078125 2.953125q-2.046875 1.0625 -5.09375 1.0625q-2.59375 0 -4.5625 -1.0625q-1.953125 -1.046875 -3.046875 -2.953125q-1.09375 -1.90625 -1.09375 -4.375zm2.21875 0q0 1.984375 0.859375 3.359375q0.875 1.390625 2.34375 2.09375q1.484375 0.71875 3.28125 0.71875q3.046875 0 5.015625 -1.59375q1.984375 -1.59375 1.984375 -4.578125q0 -2.03125 -0.921875 -3.40625q-0.90625 -1.375 -2.484375 -2.0625q-1.578125 -0.6875 -3.59375 -0.6875q-1.828125 0 -3.3125 0.6875q-1.46875 0.6875 -2.328125 2.0625q-0.84375 1.375 -0.84375 3.40625zm-1.796875 25.477783l0 -2.25l1.96875 0q-1.109375 -0.796875 -1.6875 -2.125q-0.5625 -1.3125 -0.625 -2.859375q-0.078125 -1.53125 0.375 -3.03125q0.453125 -1.484375 1.390625 -2.5625q0.90625 -1.03125 2.25 -1.609375q1.359375 -0.5625 3.15625 -0.5625l10.5 0l0 2.28125l-10.5 0q-2.59375 0 -3.828125 1.484375q-1.234375 1.5 -1.234375 3.8125q0 1.15625 0.53125 2.34375q0.546875 1.203125 1.671875 2.015625q1.125 0.8125 2.859375 0.8125l10.5 0l0 2.25l-17.328125 0zm7.34375 6.281494l7.875 0l0 -3.15625l2.109375 0l0 3.15625l6.9375 0l0 2.28125l-6.9375 0l0 3.1875l-2.109375 0l0 -3.1875l-7.875 0q-2.25 0 -3.34375 0.078125q-1.09375 0.09375 -1.453125 0.484375q-0.359375 0.40625 -0.359375 1.453125l0 0.921875l-2.296875 0l0 -0.859375q0 -1.484375 0.296875 -2.359375q0.296875 -0.859375 1.078125 -1.296875q0.78125 -0.4375 2.25 -0.578125q1.46875 -0.125 3.828125 -0.125zm-7.34375 36.90085l0 -2.28125l10.4375 0q2.5625 0 3.734375 -1.46875q1.1875 -1.453125 1.1875 -3.765625q0 -1.28125 -0.53125 -2.453125q-0.515625 -1.15625 -1.34375 -1.90625q-0.828125 -0.734375 -1.703125 -0.734375l-11.78125 0l0 -2.296875l24.265625 0l0 2.296875l-8.90625 0q1.171875 0.96875 1.65625 2.453125q0.484375 1.5 0.484375 2.734375q-0.109375 3.46875 -1.875 5.4375q-1.765625 1.984375 -5.1875 1.984375l-10.4375 0zm8.078125 19.059326l0 -13.921875q-2.46875 0.03125 -3.953125 1.203125q-1.484375 1.1875 -2.0 3.03125q-0.5 1.859375 -0.046875 4.0q0.453125 2.15625 1.90625 4.125l-1.796875 1.1875q-1.25 -1.625 -1.84375 -3.4375q-0.59375 -1.796875 -0.65625 -3.640625q-0.140625 -4.296875 2.390625 -6.625q2.53125 -2.3125 7.03125 -2.3125q3.890625 0 6.140625 2.140625q2.25 2.15625 2.25 6.34375q0 2.671875 -1.109375 4.59375q-1.109375 1.921875 -3.296875 2.828125q-1.0 0.421875 -2.28125 0.515625q-1.28125 0.109375 -2.734375 -0.03125zm7.28125 -7.828125q0 -1.625 -0.5625 -3.015625q-0.546875 -1.390625 -1.71875 -2.234375q-1.15625 -0.84375 -3.03125 -0.84375l0 11.84375q2.640625 0 3.96875 -1.5625q1.34375 -1.5625 1.34375 -4.1875zm-15.359375 11.367462l17.046875 0l0 2.25l-1.6875 0q1.234375 1.109375 1.609375 2.71875q0.390625 1.609375 -0.328125 4.25l-2.046875 -1.0q0.578125 -1.671875 0.140625 -3.03125q-0.421875 -1.34375 -1.4375 -2.140625q-1.0 -0.796875 -2.0625 -0.796875l-11.234375 0l0 -2.25zm8.078125 26.19522l0 -13.921875q-2.46875 0.03125 -3.953125 1.203125q-1.484375 1.1875 -2.0 3.03125q-0.5 1.859375 -0.046875 4.0q0.453125 2.15625 1.90625 4.125l-1.796875 1.1875q-1.25 -1.625 -1.84375 -3.4375q-0.59375 -1.796875 -0.65625 -3.640625q-0.140625 -4.296875 2.390625 -6.625q2.53125 -2.3125 7.03125 -2.3125q3.890625 0 6.140625 2.140625q2.25 2.15625 2.25 6.34375q0 2.671875 -1.109375 4.59375q-1.109375 1.921875 -3.296875 2.828125q-1.0 0.421875 -2.28125 0.515625q-1.28125 0.109375 -2.734375 -0.03125zm7.28125 -7.828125q0 -1.625 -0.5625 -3.015625q-0.546875 -1.390625 -1.71875 -2.234375q-1.15625 -0.84375 -3.03125 -0.84375l0 11.84375q2.640625 0 3.96875 -1.5625q1.34375 -1.5625 1.34375 -4.1875z" fill-rule="nonzero"/></g></g></svg>