<svg version="1.1" viewBox="0.0 0.0 960.0 540.0" fill="none" stroke="none" stroke-linecap="square" stroke-miterlimit="10" xmlns:xlink="http://www.w3.org/1999/xlink" xmlns="http://www.w3.org/2000/svg"><clipPath id="gaf2513e1ad_0_122.0"><path d="m0 0l960.0 0l0 540.0l-960.0 0l0 -540.0z" clip-rule="nonzero"/></clipPath><g clip-path="url(#gaf2513e1ad_0_122.0)"><path fill="#ffffff" d="m0 0l960.0 0l0 540.0l-960.0 0z" fill-rule="evenodd"/><path fill="#000000" d="m208.89764 198.3622l136.12598 0l0 143.27559l-136.12598 0z" fill-rule="evenodd"/><path stroke="#000000" stroke-width="1.0" stroke-linejoin="round" stroke-linecap="butt" d="m208.89764 198.3622l136.12598 0l0 143.27559l-136.12598 0z" fill-rule="evenodd"/><path fill="#ffffff" d="m251.56296 283.34l3.390625 0l0 -17.109375l7.59375 0l0 -2.609375l-7.59375 0l0 -1.390625q0 -1.234375 0.3125 -2.15625q0.328125 -0.9375 0.9375 -1.515625q0.59375 -0.578125 1.46875 -0.859375q0.890625 -0.28125 2.03125 -0.28125q1.140625 0 2.125 0.203125q1.0 0.1875 1.75 0.4375l0.390625 -2.78125q-0.46875 -0.140625 -0.921875 -0.234375q-0.453125 -0.09375 -0.921875 -0.1875q-0.6875 -0.125 -1.40625 -0.203125q-0.703125 -0.09375 -1.421875 -0.09375q-1.75 0 -3.171875 0.5q-1.421875 0.484375 -2.4375 1.453125q-1.015625 0.96875 -1.578125 2.40625q-0.546875 1.421875 -0.546875 3.3125l0 1.390625l-5.4375 0l0 2.609375l5.4375 0l0 17.109375zm20.697418 -10.765625l0 0.171875q0 2.609375 0.40625 4.90625q0.421875 2.296875 1.109375 4.25q0.671875 1.96875 1.578125 3.578125q0.90625 1.609375 1.90625 2.875q0.984375 1.265625 2.0 2.15625q1.015625 0.890625 1.921875 1.390625l0.703125 -2.0625q-0.734375 -0.59375 -1.484375 -1.453125q-0.734375 -0.84375 -1.421875 -1.9375q-0.671875 -1.140625 -1.296875 -2.59375q-0.625 -1.4375 -1.09375 -3.140625q-0.4375 -1.671875 -0.703125 -3.65625q-0.25 -2.0 -0.25 -4.265625l0 -0.265625q0 -2.359375 0.265625 -4.421875q0.28125 -2.0625 0.78125 -3.78125q0.5 -1.890625 1.265625 -3.484375q0.765625 -1.59375 1.609375 -2.78125q0.5625 -0.765625 1.15625 -1.375q0.59375 -0.625 1.171875 -1.0625l-0.703125 -2.234375q-0.90625 0.515625 -1.921875 1.40625q-1.0 0.890625 -1.984375 2.15625q-1.0 1.25 -1.90625 2.875q-0.890625 1.625 -1.59375 3.578125q-0.6875 1.96875 -1.109375 4.265625q-0.40625 2.296875 -0.40625 4.90625zm31.369263 0.171875l0 -0.171875q0 -2.796875 -0.421875 -5.03125q-0.421875 -2.234375 -1.078125 -4.140625q-0.6875 -1.984375 -1.578125 -3.5625q-0.890625 -1.59375 -1.90625 -2.890625q-0.984375 -1.265625 -2.015625 -2.15625q-1.015625 -0.890625 -1.921875 -1.40625l-0.71875 2.0625q0.609375 0.5 1.234375 1.203125q0.640625 0.703125 1.25 1.625q0.78125 1.1875 1.53125 2.78125q0.75 1.59375 1.28125 3.59375q0.359375 1.40625 0.65625 3.421875q0.296875 2.0 0.296875 4.453125l0 0.265625q0 2.15625 -0.234375 4.0625q-0.21875 1.90625 -0.640625 3.546875q-0.390625 1.765625 -1.03125 3.25q-0.625 1.484375 -1.296875 2.671875q-0.703125 1.171875 -1.5 2.0625q-0.78125 0.890625 -1.546875 1.453125l0.71875 2.0625q0.90625 -0.5 1.921875 -1.390625q1.015625 -0.890625 2.015625 -2.15625q0.984375 -1.265625 1.875 -2.875q0.90625 -1.609375 1.609375 -3.578125q0.6875 -1.953125 1.09375 -4.25q0.40625 -2.296875 0.40625 -4.90625z" fill-rule="nonzero"/><path fill="#93c47d" d="m12.414699 270.0l0 0c0 -28.0578 22.745342 -50.803146 50.803146 -50.803146l0 0c13.473835 0 26.395817 5.352463 35.923252 14.879898c9.527443 9.527435 14.879898 22.449402 14.879898 35.92325l0 0c0 28.0578 -22.745346 50.80316 -50.80315 50.80316l0 0c-28.057804 0 -50.803146 -22.745361 -50.803146 -50.80316z" fill-rule="evenodd"/><path fill="#674ea7" d="m846.5696 320.80316l50.8031 -101.60631l50.80316 101.60631z" fill-rule="evenodd"/><path fill="#000000" fill-opacity="0.0" d="m129.9147 270.0l63.08661 0" fill-rule="evenodd"/><path stroke="#696969" stroke-width="4.0" stroke-linejoin="round" stroke-linecap="butt" d="m129.9147 270.0l39.08661 0" fill-rule="evenodd"/><path fill="#696969" stroke="#696969" stroke-width="4.0" stroke-linecap="butt" d="m169.00131 276.60693l18.15239 -6.6069336l-18.15239 -6.6069336z" fill-rule="evenodd"/><path fill="#000000" fill-opacity="0.0" d="m783.58795 270.0l63.08661 0" fill-rule="evenodd"/><path stroke="#696969" stroke-width="4.0" stroke-linejoin="round" stroke-linecap="butt" d="m783.58795 270.0l39.08661 0" fill-rule="evenodd"/><path fill="#696969" stroke="#696969" stroke-width="4.0" stroke-linecap="butt" d="m822.67456 276.60693l18.152344 -6.6069336l-18.152344 -6.6069336z" fill-rule="evenodd"/><path fill="#93c47d" d="m439.90027 320.80316l50.80313 -101.60631l50.803192 101.60631z" fill-rule="evenodd"/><path fill="#000000" fill-opacity="0.0" d="m360.91864 270.0l63.08661 0" fill-rule="evenodd"/><path stroke="#696969" stroke-width="4.0" stroke-linejoin="round" stroke-linecap="butt" d="m360.91864 270.0l39.08661 0" fill-rule="evenodd"/><path fill="#696969" stroke="#696969" stroke-width="4.0" stroke-linecap="butt" d="m400.00525 276.60693l18.152405 -6.6069336l-18.152405 -6.6069336z" fill-rule="evenodd"/><path fill="#000000" d="m631.56696 198.3622l136.12598 0l0 143.27559l-136.12598 0z" fill-rule="evenodd"/><path stroke="#000000" stroke-width="1.0" stroke-linejoin="round" stroke-linecap="butt" d="m631.56696 198.3622l136.12598 0l0 143.27559l-136.12598 0z" fill-rule="evenodd"/><path fill="#ffffff" d="m668.576 273.30875l0 0.390625q0 2.109375 0.546875 3.953125q0.546875 1.828125 1.578125 3.171875q1.0 1.34375 2.453125 2.109375q1.453125 0.765625 3.265625 0.765625q1.078125 0 2.0 -0.234375q0.9375 -0.21875 1.703125 -0.640625q0.484375 -0.265625 0.90625 -0.625q0.4375 -0.375 0.828125 -0.8125l0 1.703125q0 1.265625 -0.375 2.25q-0.359375 0.984375 -1.03125 1.640625q-0.703125 0.671875 -1.671875 1.015625q-0.953125 0.359375 -2.15625 0.359375q-0.671875 0 -1.359375 -0.140625q-0.671875 -0.140625 -1.34375 -0.453125q-0.671875 -0.296875 -1.328125 -0.828125q-0.65625 -0.515625 -1.28125 -1.265625l-1.75 2.03125q0.671875 0.96875 1.609375 1.625q0.953125 0.65625 1.96875 1.03125q1.0 0.40625 1.984375 0.578125q0.984375 0.171875 1.75 0.171875q1.859375 0 3.390625 -0.546875q1.53125 -0.546875 2.640625 -1.609375q1.09375 -1.046875 1.703125 -2.5625q0.609375 -1.515625 0.609375 -3.46875l0 -19.296875l-3.0625 0l-0.15625 2.140625q-0.34375 -0.4375 -0.734375 -0.796875q-0.390625 -0.359375 -0.828125 -0.640625q-0.8125 -0.515625 -1.8125 -0.78125q-0.984375 -0.28125 -2.171875 -0.28125q-1.84375 0 -3.296875 0.75q-1.453125 0.734375 -2.484375 2.0625q-1.015625 1.328125 -1.5625 3.1875q-0.53125 1.84375 -0.53125 4.046875zm3.375 0.390625l0 -0.390625q0 -1.4375 0.296875 -2.734375q0.3125 -1.3125 0.96875 -2.3125q0.625 -0.984375 1.640625 -1.5625q1.015625 -0.578125 2.4375 -0.578125q0.84375 0 1.53125 0.203125q0.6875 0.203125 1.25 0.578125q0.578125 0.375 1.015625 0.890625q0.4375 0.515625 0.765625 1.125l0 9.046875q-0.328125 0.640625 -0.765625 1.171875q-0.4375 0.515625 -0.984375 0.90625q-0.578125 0.375 -1.28125 0.59375q-0.6875 0.203125 -1.5625 0.203125q-1.40625 0 -2.421875 -0.5625q-1.0 -0.578125 -1.625 -1.5625q-0.65625 -0.984375 -0.96875 -2.28125q-0.296875 -1.296875 -0.296875 -2.734375zm22.978699 -1.125l0 0.171875q0 2.609375 0.40625 4.90625q0.421875 2.296875 1.109375 4.25q0.671875 1.96875 1.578125 3.578125q0.90625 1.609375 1.90625 2.875q0.984375 1.265625 2.0 2.15625q1.015625 0.890625 1.921875 1.390625l0.703125 -2.0625q-0.734375 -0.59375 -1.484375 -1.453125q-0.734375 -0.84375 -1.421875 -1.9375q-0.671875 -1.140625 -1.296875 -2.59375q-0.625 -1.4375 -1.09375 -3.140625q-0.4375 -1.671875 -0.703125 -3.65625q-0.25 -2.0 -0.25 -4.265625l0 -0.265625q0 -2.359375 0.265625 -4.421875q0.28125 -2.0625 0.78125 -3.78125q0.5 -1.890625 1.265625 -3.484375q0.765625 -1.59375 1.609375 -2.78125q0.5625 -0.765625 1.15625 -1.375q0.59375 -0.625 1.171875 -1.0625l-0.703125 -2.234375q-0.90625 0.515625 -1.921875 1.40625q-1.0 0.890625 -1.984375 2.15625q-1.0 1.25 -1.90625 2.875q-0.890625 1.625 -1.59375 3.578125q-0.6875 1.96875 -1.109375 4.265625q-0.40625 2.296875 -0.40625 4.90625zm31.369263 0.171875l0 -0.171875q0 -2.796875 -0.421875 -5.03125q-0.421875 -2.234375 -1.078125 -4.140625q-0.6875 -1.984375 -1.578125 -3.5625q-0.890625 -1.59375 -1.90625 -2.890625q-0.984375 -1.265625 -2.015625 -2.15625q-1.015625 -0.890625 -1.921875 -1.40625l-0.71875 2.0625q0.609375 0.5 1.234375 1.203125q0.640625 0.703125 1.25 1.625q0.78125 1.1875 1.53125 2.78125q0.75 1.59375 1.28125 3.59375q0.359375 1.40625 0.65625 3.421875q0.296875 2.0 0.296875 4.453125l0 0.265625q0 2.15625 -0.234375 4.0625q-0.21875 1.90625 -0.640625 3.546875q-0.390625 1.765625 -1.03125 3.25q-0.625 1.484375 -1.296875 2.671875q-0.703125 1.171875 -1.5 2.0625q-0.78125 0.890625 -1.546875 1.453125l0.71875 2.0625q0.90625 -0.5 1.921875 -1.390625q1.015625 -0.890625 2.015625 -2.15625q0.984375 -1.265625 1.875 -2.875q0.90625 -1.609375 1.609375 -3.578125q0.6875 -1.953125 1.09375 -4.25q0.40625 -2.296875 0.40625 -4.90625z" fill-rule="nonzero"/><path fill="#000000" fill-opacity="0.0" d="m546.9934 267.09186l63.08667 0" fill-rule="evenodd"/><path stroke="#696969" stroke-width="4.0" stroke-linejoin="round" stroke-linecap="butt" d="m546.9934 267.09186l39.08667 0" fill-rule="evenodd"/><path fill="#696969" stroke="#696969" stroke-width="4.0" stroke-linecap="butt" d="m586.0801 273.6988l18.152344 -6.6069336l-18.152344 -6.6069336z" fill-rule="evenodd"/></g></svg>